<svg width="256" height="256" viewBox="0 0 256 256" fill="none" xmlns="http://www.w3.org/2000/svg">
<path d="M237.636 127.877C228.579 127.877 221.208 120.506 221.208 111.446C221.208 102.39 228.579 95.019 237.636 95.019C246.693 95.019 254.063 102.39 254.063 111.446C254.063 120.506 246.693 127.877 237.636 127.877ZM237.636 100.622C231.666 100.622 226.811 105.477 226.811 111.446C226.811 117.416 231.666 122.274 237.636 122.274C243.605 122.274 248.46 117.416 248.46 111.446C248.46 105.477 243.605 100.622 237.636 100.622Z" fill="#908DAF"/>
<path d="M37.851 224.741C28.7941 224.741 21.4236 217.37 21.4236 208.314C21.4236 199.254 28.7941 191.883 37.851 191.883C46.9107 191.883 54.2812 199.254 54.2812 208.314C54.2812 217.37 46.9107 224.741 37.851 224.741ZM37.851 197.486C31.8812 197.486 27.0264 202.344 27.0264 208.314C27.0264 214.283 31.8812 219.138 37.851 219.138C43.8208 219.138 48.6784 214.283 48.6784 208.314C48.6784 202.344 43.8208 197.486 37.851 197.486Z" fill="#908DAF"/>
<path d="M61.1109 154.216C56.7884 154.216 52.7207 152.529 49.6644 149.473C46.6081 146.416 44.9244 142.352 44.9244 138.026C44.9244 133.701 46.6081 129.636 49.6672 126.58L79.7094 96.5375C77.1293 96.0893 74.6585 94.8706 72.6723 92.8845C67.5401 87.7523 67.5401 79.4013 72.6723 74.2719L94.8006 52.1437C103.947 42.9915 118.027 40.3946 129.838 45.6697C131.25 46.3028 131.883 47.9584 131.252 49.3703C130.619 50.7794 128.964 51.4125 127.552 50.785C117.853 46.4484 106.278 48.5859 98.7617 56.1021L76.6335 78.2303C73.6864 81.1774 73.6864 85.9734 76.6335 88.9205C79.5834 91.8675 84.3766 91.8675 87.3236 88.9205L109.796 66.4476C110.892 65.3523 112.662 65.3523 113.758 66.4476C114.853 67.543 114.853 69.3135 113.758 70.4088L53.6256 130.541C51.6254 132.541 50.5244 135.2 50.5244 138.026C50.5244 140.853 51.6254 143.511 53.6256 145.512C57.6288 149.515 64.6015 149.512 68.5963 145.512L98.1174 115.993C99.2128 114.898 100.983 114.898 102.079 115.993C103.174 117.089 103.174 118.859 102.079 119.954L72.5574 149.473C69.5011 152.532 65.4363 154.216 61.1109 154.216Z" fill="#908DAF"/>
<path d="M79.7515 172.85C75.6055 172.85 71.4594 171.273 68.305 168.116C65.2459 165.06 63.5623 160.992 63.5623 156.667C63.5623 152.344 65.2459 148.277 68.305 145.22L97.8234 115.702C98.9187 114.607 100.689 114.607 101.785 115.702C102.88 116.797 102.88 118.568 101.785 119.663L72.2662 149.181C70.266 151.182 69.1651 153.84 69.1651 156.667C69.1651 159.496 70.266 162.155 72.2662 164.155C76.3927 168.281 83.1076 168.281 87.2369 164.155L150.462 100.93C151.557 99.8348 153.328 99.8348 154.423 100.93L164.816 111.323C167.458 113.965 170.971 115.422 174.711 115.422C178.448 115.422 181.963 113.965 184.605 111.323L205.279 90.649C208.227 87.7019 208.227 82.9059 205.279 79.9588C202.422 77.1014 197.444 77.1014 194.589 79.9588L183.868 90.6798C180.12 94.4281 173.584 94.4281 169.836 90.6798C168.741 89.5845 168.741 87.8112 169.836 86.7158C170.932 85.6233 172.702 85.6233 173.797 86.7158C175.428 88.349 178.277 88.3462 179.907 86.7158L190.628 75.9949C193.116 73.5072 196.419 72.1401 199.934 72.1401C203.45 72.1401 206.756 73.5072 209.241 75.9949C211.728 78.4797 213.095 81.7854 213.095 85.3011C213.095 88.8169 211.728 92.1225 209.241 94.6074L188.566 115.282C184.866 118.982 179.944 121.022 174.711 121.022C169.475 121.022 164.556 118.982 160.855 115.282L152.442 106.869L91.1981 168.113C88.0437 171.27 83.8976 172.85 79.7515 172.85Z" fill="#908DAF"/>
<path d="M164.715 80.6172C157.277 80.6172 150.282 77.7206 145.024 72.4595C139.763 67.2013 136.866 60.2062 136.866 52.7657C136.866 45.328 139.763 38.3329 145.024 33.0747C150.282 27.8136 157.277 24.917 164.715 24.917C172.153 24.917 179.148 27.8136 184.406 33.0747C189.667 38.3329 192.564 45.328 192.564 52.7657C192.564 60.2062 189.667 67.1985 184.406 72.4595C179.151 77.7206 172.156 80.6172 164.715 80.6172ZM164.715 30.5226C158.773 30.5226 153.187 32.8365 148.985 37.0386C144.783 41.2407 142.469 46.8267 142.469 52.7685C142.469 58.7131 144.783 64.2991 148.985 68.5012C153.187 72.7033 158.773 75.0172 164.715 75.0172C170.657 75.0172 176.243 72.7033 180.445 68.5012C184.647 64.2991 186.961 58.7131 186.961 52.7685C186.961 46.8267 184.647 41.2407 180.445 37.0386C176.243 32.8365 170.66 30.5226 164.715 30.5226Z" fill="#908DAF"/>
<path d="M21.883 65.4055H18.2216C16.6752 65.4055 15.4202 64.1505 15.4202 62.6041C15.4202 61.0578 16.6752 59.8027 18.2216 59.8027H21.883C23.4294 59.8027 24.6844 61.0578 24.6844 62.6041C24.6844 64.1505 23.4294 65.4055 21.883 65.4055Z" fill="white"/>
<path d="M40.2209 65.4055H36.5623C35.0159 65.4055 33.7609 64.1505 33.7609 62.6041C33.7609 61.0578 35.0159 59.8027 36.5623 59.8027H40.2209C41.7673 59.8027 43.0223 61.0578 43.0223 62.6041C43.0223 64.1505 41.7673 65.4055 40.2209 65.4055Z" fill="white"/>
<path d="M29.2227 58.0661C27.6763 58.0661 26.4213 56.8111 26.4213 55.2647V51.6061C26.4213 50.0597 27.6763 48.8047 29.2227 48.8047C30.769 48.8047 32.0241 50.0597 32.0241 51.6061V55.2647C32.0241 56.8111 30.769 58.0661 29.2227 58.0661Z" fill="white"/>
<path d="M29.2227 76.4069C27.6763 76.4069 26.4213 75.1519 26.4213 73.6055V69.9469C26.4213 68.4005 27.6763 67.1455 29.2227 67.1455C30.769 67.1455 32.0241 68.4005 32.0241 69.9469V73.6055C32.0241 75.1519 30.769 76.4069 29.2227 76.4069Z" fill="white"/>
<path d="M80.4042 18.8016C80.04 18.8016 79.6758 18.7175 79.3396 18.5775C79.0035 18.4374 78.6953 18.2413 78.4432 17.9892C78.1631 17.709 77.967 17.4009 77.8269 17.0647C77.6868 16.7285 77.6028 16.3644 77.6028 16.0002C77.6028 15.636 77.6868 15.2718 77.8269 14.9356C77.967 14.5715 78.1631 14.2633 78.4432 14.0112C78.6953 13.7591 79.0035 13.563 79.3396 13.4229C80.04 13.1427 80.7964 13.1147 81.4967 13.4229C81.8329 13.563 82.141 13.7591 82.3932 14.0112C82.6453 14.2633 82.8694 14.5715 83.0095 14.9356C83.1496 15.2718 83.2056 15.636 83.2056 16.0002C83.2056 16.7285 82.9254 17.4569 82.3932 17.9892C81.8609 18.4934 81.1606 18.8016 80.4042 18.8016Z" fill="white"/>
<path d="M209.557 225.839H205.896C204.347 225.839 203.094 224.587 203.094 223.038C203.094 221.489 204.347 220.236 205.896 220.236H209.557C211.106 220.236 212.359 221.489 212.359 223.038C212.359 224.587 211.106 225.839 209.557 225.839Z" fill="white"/>
<path d="M227.895 225.839H224.234C222.684 225.839 221.432 224.587 221.432 223.038C221.432 221.489 222.684 220.236 224.234 220.236H227.895C229.444 220.236 230.696 221.489 230.696 223.038C230.696 224.587 229.444 225.839 227.895 225.839Z" fill="white"/>
<path d="M216.894 218.5C215.345 218.5 214.093 217.247 214.093 215.698V212.037C214.093 210.488 215.345 209.235 216.894 209.235C218.443 209.235 219.695 210.488 219.695 212.037V215.698C219.695 217.245 218.443 218.5 216.894 218.5Z" fill="white"/>
<path d="M216.894 236.837C215.345 236.837 214.093 235.585 214.093 234.036V230.375C214.093 228.825 215.345 227.573 216.894 227.573C218.443 227.573 219.695 228.825 219.695 230.375V234.036C219.695 235.582 218.443 236.837 216.894 236.837Z" fill="white"/>
<path d="M98.5853 237.311C98.1931 237.311 97.857 237.23 97.4928 237.087C97.1566 236.947 96.8485 236.751 96.5963 236.47C96.0641 235.941 95.7839 235.241 95.7839 234.481C95.7839 234.117 95.84 233.753 95.98 233.417C96.1201 233.081 96.3442 232.773 96.5963 232.52C96.8485 232.24 97.1566 232.044 97.4928 231.904C98.5293 231.484 99.7899 231.736 100.546 232.52C101.079 233.027 101.387 233.753 101.387 234.481C101.387 234.874 101.303 235.241 101.163 235.574C101.023 235.91 100.826 236.218 100.546 236.47C100.294 236.751 99.986 236.947 99.6499 237.087C99.3137 237.227 98.9495 237.311 98.5853 237.311Z" fill="white"/>
<path d="M4.73841 164.082C3.98203 164.082 3.28168 163.802 2.74942 163.27C2.21715 162.735 1.93701 162.034 1.93701 161.281C1.93701 160.916 2.02105 160.552 2.16112 160.216C2.30119 159.88 2.49729 159.572 2.74942 159.32C3.78594 158.283 5.69089 158.255 6.72741 159.32C6.97953 159.572 7.17563 159.88 7.3157 160.216C7.45577 160.552 7.53981 160.916 7.53981 161.281C7.53981 162.037 7.25967 162.737 6.72741 163.27C6.19514 163.802 5.49479 164.082 4.73841 164.082Z" fill="white"/>
<path d="M243.863 173.187C243.107 173.187 242.406 172.879 241.905 172.346C241.622 172.094 241.429 171.786 241.286 171.45C241.146 171.114 241.062 170.75 241.062 170.357C241.062 170.186 241.093 169.993 241.121 169.825C241.149 169.657 241.205 169.461 241.289 169.296C241.348 169.125 241.432 168.959 241.544 168.817C241.653 168.648 241.765 168.511 241.908 168.399C242.16 168.116 242.465 167.923 242.801 167.783C243.308 167.559 243.866 167.5 244.426 167.612C244.597 167.671 244.762 167.724 244.933 167.783C245.127 167.864 245.267 167.951 245.438 168.035C245.578 168.147 245.718 168.259 245.855 168.399C245.967 168.511 246.11 168.651 246.191 168.817C246.303 168.959 246.387 169.125 246.474 169.296C246.53 169.464 246.586 169.66 246.614 169.825C246.67 169.996 246.67 170.189 246.67 170.357C246.67 170.75 246.614 171.114 246.477 171.45C246.34 171.786 246.113 172.094 245.858 172.346C245.323 172.879 244.622 173.187 243.863 173.187Z" fill="white"/>
<path d="M234.789 30.9037C234.03 30.9037 233.33 30.5955 232.8 30.0913C232.293 29.559 231.988 28.8587 231.988 28.1023C231.988 27.3739 232.293 26.6456 232.8 26.1133C233.445 25.469 234.425 25.1888 235.322 25.3569C235.518 25.3849 235.686 25.441 235.854 25.525C236.022 25.581 236.19 25.6651 236.358 25.7771C236.498 25.8612 236.641 26.0012 236.778 26.1133C237.283 26.6456 237.591 27.3739 237.591 28.1023C237.591 28.2984 237.56 28.4665 237.532 28.6626C237.504 28.8307 237.448 28.9987 237.364 29.1668C237.305 29.3349 237.224 29.503 237.112 29.6711C237.028 29.8112 236.888 29.9512 236.776 30.0913C236.636 30.2033 236.493 30.3434 236.355 30.4275C236.187 30.5395 236.019 30.6236 235.851 30.6796C235.68 30.7636 235.515 30.8197 235.319 30.8477C235.154 30.8757 234.983 30.9037 234.789 30.9037Z" fill="white"/>
<path d="M169.22 66.7726C168.326 66.7726 167.399 66.6746 166.449 66.4757C162.998 65.7473 159.505 63.7583 156.616 60.8701C153.731 57.9846 151.739 54.4941 151.011 51.0372C150.204 47.2077 151.058 43.6975 153.35 41.406C155.641 39.1116 159.146 38.2544 162.984 39.0696C166.435 39.7979 169.929 41.7869 172.814 44.6724C179.187 51.0456 180.624 59.5982 176.083 64.1393C174.358 65.8622 171.943 66.7726 169.22 66.7726ZM160.168 44.3642C159.177 44.3642 158.087 44.5855 157.308 45.3643C156.036 46.6362 156.249 48.74 156.49 49.8802C156.992 52.2502 158.479 54.8079 160.575 56.9061C162.673 59.0043 165.233 60.4919 167.603 60.9905C168.749 61.2343 170.85 61.4444 172.119 60.1725C174.075 58.2144 173.215 52.9925 168.85 48.628C166.755 46.5325 164.194 45.0422 161.824 44.5435C161.384 44.4539 160.796 44.3642 160.168 44.3642Z" fill="white"/>
<path d="M129.056 107.057C128.314 107.057 127.599 106.763 127.076 106.236L111.25 90.411C110.155 89.3156 110.155 87.5451 111.25 86.4498L125.061 72.6389C126.157 71.5435 127.927 71.5435 129.023 72.6389L144.848 88.464C145.374 88.9907 145.668 89.7022 145.668 90.4446C145.668 91.187 145.374 91.9013 144.848 92.4252L131.034 106.239C130.51 106.76 129.799 107.057 129.056 107.057ZM117.192 88.4304L129.056 100.294L138.909 90.4418L127.045 78.5779L117.192 88.4304Z" fill="#908DAF"/>
<path d="M167.11 242.804C166.393 242.804 165.676 242.53 165.13 241.984L122.159 199.016C115.607 192.463 115.607 181.801 122.159 175.251C128.709 168.699 139.374 168.693 145.923 175.251L152.325 181.655C154.44 183.77 157.255 184.936 160.247 184.936C163.236 184.936 166.051 183.77 168.166 181.655C172.534 177.285 172.534 170.181 168.166 165.813L138.04 135.682C136.945 134.586 136.945 132.816 138.04 131.72C139.136 130.625 140.906 130.625 142.001 131.72L172.13 161.849C178.683 168.402 178.683 179.064 172.13 185.614C165.581 192.166 154.913 192.172 148.366 185.614L141.965 179.21C137.595 174.842 130.488 174.842 126.123 179.21C121.756 183.58 121.756 190.684 126.123 195.052L169.094 238.022C170.189 239.118 170.189 240.888 169.094 241.984C168.545 242.533 167.828 242.804 167.11 242.804Z" fill="#908DAF"/>
</svg>
