<svg width="512" height="512" viewBox="0 0 512 512" fill="none" xmlns="http://www.w3.org/2000/svg">
<g clip-path="url(#clip0_178_336)">
<path d="M416.352 84.396L239.121 511.653C244.685 511.877 250.312 512 256 512C363.204 512 450.11 471.232 450.11 420.942C450.11 370.652 450.11 84.396 450.11 84.396H416.352V84.396Z" fill="#A2B1B7"/>
<path d="M416.352 420.942C416.352 370.652 416.352 84.396 416.352 84.396H61.89C61.89 84.396 61.89 370.652 61.89 420.942C61.89 468.564 139.822 507.64 239.121 511.654C338.42 507.64 416.352 468.563 416.352 420.942Z" fill="#C4D3D9"/>
<path d="M450.11 84.396C450.11 37.786 363.204 0 256 0L233.495 84.396L256 168.791V421.978C256 434.408 266.076 444.484 278.505 444.484C290.935 444.484 301.011 434.408 301.011 421.978V166.506C312.709 165.299 323.997 163.63 334.769 161.548V354.462C334.769 366.892 344.845 376.967 357.274 376.967C369.703 376.967 379.779 366.891 379.779 354.462V149.406C422.742 133.926 450.11 110.551 450.11 84.396Z" fill="#E0315B"/>
<path d="M256 0C148.796 0 61.89 37.786 61.89 84.396C61.89 110.551 89.258 133.926 132.22 149.406V286.945C132.22 299.375 142.296 309.45 154.725 309.45C167.154 309.45 177.23 299.374 177.23 286.945V161.548C201.304 166.201 227.954 168.791 255.999 168.791V0H256Z" fill="#EA5A7D"/>
<path d="M256 33.7578C170.548 33.7578 101.275 56.4288 101.275 84.3948C101.275 93.6188 108.814 102.265 121.98 109.714H390.02C403.186 102.266 410.725 93.6188 410.725 84.3948C410.725 56.4288 341.452 33.7578 256 33.7578Z" fill="#F5849F"/>
<path d="M121.98 109.714C148.733 124.849 198.732 135.033 256 135.033C313.268 135.033 363.268 124.849 390.02 109.714C363.268 94.579 313.27 84.396 256 84.396C198.73 84.396 148.732 94.579 121.98 109.714Z" fill="#E0315B"/>
</g>
<defs>
<clipPath id="clip0_178_336">
<rect width="512" height="512" fill="white"/>
</clipPath>
</defs>
</svg>
