<svg width="512" height="512" viewBox="0 0 512 512" fill="none" xmlns="http://www.w3.org/2000/svg">
<g clip-path="url(#clip0_178_358)">
<path d="M297.343 64.7881V115.743C284.01 112.849 270.16 111.299 255.999 111.299C241.838 111.299 227.989 112.85 214.655 115.743V64.7881H235.326H276.67H297.343Z" fill="#7E8488"/>
<path d="M276.67 7.93994H235.329V64.7869H276.67V7.93994Z" fill="#AFB6BB"/>
<path d="M256 504.06V416.205H359.359V474.603C329.384 493.311 293.933 504.06 256 504.06Z" fill="#0089BE"/>
<path d="M359.359 307.679H452.381C452.381 347.782 440.288 385.094 419.617 416.205H359.359V307.679Z" fill="#0089BE"/>
<path d="M422.51 203.598L421.373 204.321H359.358V140.756C384.888 156.569 406.593 178.068 422.51 203.598Z" fill="#0089BE"/>
<path d="M359.361 204.321H256.004V307.678H359.361V204.321Z" fill="#0089BE"/>
<path d="M214.656 115.743C227.989 112.849 241.839 111.299 256 111.299V204.321H152.641V140.756C171.453 129.076 192.331 120.497 214.656 115.743Z" fill="#0089BE"/>
<path d="M152.641 416.205V474.603C128.559 459.719 107.99 439.771 92.3828 416.205H152.641Z" fill="#0089BE"/>
<path d="M255.994 307.677H152.637V416.2H255.994V307.677Z" fill="#0089BE"/>
<path d="M152.641 204.321V307.68H59.6189C59.6189 269.437 70.5749 233.778 89.4889 203.598L90.6259 204.321H152.641V204.321Z" fill="#0089BE"/>
<path d="M422.51 203.598C441.425 233.778 452.381 269.437 452.381 307.68H359.359V204.321H421.374L422.51 203.598Z" fill="#00B4D7"/>
<path d="M359.359 416.205H419.617C404.01 439.771 383.442 459.719 359.359 474.603V416.205Z" fill="#00B4D7"/>
<path d="M359.361 307.677H256.004V416.2H359.361V307.677Z" fill="#00B4D7"/>
<path d="M297.343 115.743C319.669 120.497 340.547 129.076 359.358 140.756V204.321H255.999V111.299C270.16 111.299 284.01 112.849 297.343 115.743Z" fill="#00B4D7"/>
<path d="M255.994 204.321H152.637V307.678H255.994V204.321Z" fill="#00B4D7"/>
<path d="M256 416.205V504.06C218.067 504.06 182.616 493.31 152.641 474.603V416.205H256Z" fill="#00B4D7"/>
<path d="M152.641 307.679V416.205H92.3841C71.7131 385.094 59.6201 347.782 59.6201 307.679H152.641Z" fill="#00B4D7"/>
<path d="M152.641 140.756V204.321H90.626L89.489 203.598C105.407 178.068 127.112 156.569 152.641 140.756Z" fill="#00B4D7"/>
<path d="M235.329 64.7881H214.658V115.743C227.991 112.849 241.841 111.299 256.002 111.299V64.7881H235.329Z" fill="#686E71"/>
<path d="M256 7.93994H235.329V64.7869H256V7.93994Z" fill="#9CA2A7"/>
<path d="M429.247 199.397C412.841 173.082 390.119 150.47 363.546 134.01C345.395 122.741 325.814 114.493 305.283 109.432V56.8481H206.717V109.434C186.171 114.501 166.598 122.746 148.461 134.006C121.881 150.47 99.1589 173.082 82.7619 199.381C62.4269 231.828 51.6799 269.277 51.6799 307.679C51.6799 347.986 63.4679 387.034 85.7639 420.589C101.912 444.971 123.594 465.984 148.438 481.338C180.576 501.398 217.771 512 256 512C294.229 512 331.424 501.398 363.533 481.357C388.406 465.984 410.088 444.972 426.23 420.6C448.532 387.034 460.321 347.987 460.321 307.679C460.321 269.275 449.573 231.826 429.247 199.397ZM444.256 299.739H367.298V212.26H418.461C434.122 238.856 442.961 268.848 444.256 299.739ZM351.419 470.109C324.929 485.789 294.925 494.643 263.94 495.936V424.145H351.419V470.109ZM248.06 495.936C217.086 494.643 187.089 485.792 160.581 470.108V424.145H248.06V495.936ZM160.581 408.265V315.619H248.06V408.265H160.581ZM160.581 299.739V212.26H188.819V196.38H160.581V145.234C177.959 134.991 196.686 127.687 216.34 123.501C226.778 121.235 237.415 119.88 248.059 119.424V196.38H209.488V212.26H248.059V299.739H160.581ZM295.689 123.509C315.313 127.688 334.037 134.991 351.419 145.236V196.381H263.94V119.425C274.585 119.881 285.226 121.237 295.689 123.509ZM263.94 212.261H351.419V299.74H263.94V212.261ZM408.017 196.381H367.299V155.705C382.869 167.118 396.665 180.899 408.017 196.381ZM289.404 72.7281V106.152C267.313 102.472 244.65 102.476 222.598 106.151V72.7281H289.404ZM144.701 155.705V196.381H103.982C115.33 180.904 129.125 167.122 144.701 155.705ZM93.5389 212.261H144.702V299.74H67.7429C69.0389 268.853 77.8749 238.866 93.5389 212.261ZM67.7319 315.619H144.703V408.265H96.7039C79.0409 380.359 69.1079 348.561 67.7319 315.619ZM107.919 424.145H144.701V459.671C130.933 449.577 118.488 437.564 107.919 424.145ZM367.299 459.671V424.146H404.082C393.517 437.557 381.076 449.57 367.299 459.671ZM415.296 408.265H367.299V359.358H351.419V408.265H263.94V315.619H351.419V338.688H367.299V315.619H444.27C442.892 348.558 432.961 380.353 415.296 408.265Z" fill="black"/>
<path d="M243.269 15.88H268.731V44.115H284.611V0H227.389V44.115H243.269V15.88Z" fill="black"/>
<path d="M175.709 266.336H191.589V243.269H204.321V227.389H175.709V266.336Z" fill="white"/>
<path d="M279.067 369.694H294.947V346.626H307.678V330.746H279.067V369.694Z" fill="white"/>
<path d="M111.303 356.587H90.6321V372.467H111.303V356.587Z" fill="white"/>
<path d="M131.968 335.912H111.297V351.792H131.968V335.912Z" fill="white"/>
<path d="M297.34 160.206H276.669V176.086H297.34V160.206Z" fill="black"/>
<path d="M318.016 139.531H297.345V155.411H318.016V139.531Z" fill="black"/>
<path d="M421.372 263.563H400.701V279.443H421.372V263.563Z" fill="white"/>
<path d="M204.316 366.92H183.645V382.8H204.316V366.92Z" fill="black"/>
<path d="M307.683 449.611H287.012V465.491H307.683V449.611Z" fill="black"/>
</g>
<defs>
<clipPath id="clip0_178_358">
<rect width="512" height="512" fill="white"/>
</clipPath>
</defs>
</svg>
