<svg width="214" height="214" viewBox="0 0 214 214" fill="none" xmlns="http://www.w3.org/2000/svg">
<path d="M105.621 110.493C109.178 110.493 112.062 107.61 112.062 104.052C112.062 100.495 109.178 97.6114 105.621 97.6114C102.064 97.6114 99.1801 100.495 99.1801 104.052C99.1801 107.61 102.064 110.493 105.621 110.493Z" fill="#FCFBFA"/>
<path d="M83.1446 118.664C86.7018 118.664 89.5855 115.781 89.5855 112.223C89.5855 108.666 86.7018 105.783 83.1446 105.783C79.5874 105.783 76.7037 108.666 76.7037 112.223C76.7037 115.781 79.5874 118.664 83.1446 118.664Z" fill="#FCFBFA"/>
<path d="M128.097 102.322C131.655 102.322 134.538 99.4384 134.538 95.8812C134.538 92.324 131.655 89.4403 128.097 89.4403C124.54 89.4403 121.656 92.324 121.656 95.8812C121.656 99.4384 124.54 102.322 128.097 102.322Z" fill="#FCFBFA"/>
<path d="M113.183 131.237C116.741 131.237 119.624 128.353 119.624 124.796C119.624 121.239 116.741 118.355 113.183 118.355C109.626 118.355 106.742 121.239 106.742 124.796C106.742 128.353 109.626 131.237 113.183 131.237Z" fill="#FCFBFA"/>
<path d="M90.707 139.432C94.2642 139.432 97.1479 136.548 97.1479 132.991C97.1479 129.433 94.2642 126.55 90.707 126.55C87.1498 126.55 84.2661 129.433 84.2661 132.991C84.2661 136.548 87.1498 139.432 90.707 139.432Z" fill="#FCFBFA"/>
<path d="M135.66 123.066C139.217 123.066 142.101 120.182 142.101 116.625C142.101 113.068 139.217 110.184 135.66 110.184C132.103 110.184 129.219 113.068 129.219 116.625C129.219 120.182 132.103 123.066 135.66 123.066Z" fill="black"/>
<path d="M172.083 123.394L150.508 64.1239C150.508 64.1215 150.508 64.1192 150.508 64.1169C150.508 64.1145 150.506 64.1122 150.504 64.1098L146.849 54.068C146.128 52.0873 144.674 50.5022 142.754 49.6079C140.834 48.7088 138.682 48.6152 136.704 49.3363L119.812 55.4845L117.356 48.7392C116.915 47.5241 115.564 46.892 114.356 47.3415C113.139 47.7817 112.514 49.1279 112.956 50.343L115.41 57.086L67.9379 74.3647L65.4842 67.6218C65.0417 66.4067 63.6955 65.7815 62.4827 66.2217C61.2675 66.6642 60.6401 68.0081 61.0826 69.2232L63.5363 75.9685L46.6438 82.1167C42.5419 83.6105 40.4183 88.162 41.9121 92.2616L67.1442 161.587C68.3125 164.797 71.3562 166.797 74.5918 166.797C75.4886 166.797 76.3993 166.644 77.289 166.319L167.349 133.541C171.454 132.047 173.575 127.496 172.083 123.394ZM46.4308 88.1924C46.7983 87.4057 47.4422 86.811 48.2476 86.5184L67.3362 79.5694C67.3385 79.5694 67.3385 79.5694 67.3409 79.5694C67.3432 79.5694 67.3432 79.5671 67.3432 79.5671L138.305 53.7379C138.661 53.6068 139.031 53.5436 139.401 53.5436C139.869 53.5436 140.338 53.6466 140.778 53.8526C141.565 54.2179 142.159 54.8641 142.452 55.6695L145.308 63.5175L49.1724 98.5081L46.316 90.6601C46.0234 89.8547 46.0632 88.9791 46.4308 88.1924ZM165.75 129.139L75.6923 161.917C74.0159 162.517 72.1569 161.66 71.5458 159.986L50.7715 102.907L146.907 67.9168L167.684 124.995C168.293 126.672 167.426 128.531 165.75 129.139Z" fill="#908DAF"/>
<path d="M198.566 52.2582C197.749 52.2582 196.955 51.8298 196.526 51.0688C182.734 26.6702 156.776 11.515 128.779 11.515C104.879 11.515 82.6483 22.2733 67.7881 41.0317C66.985 42.0455 65.5147 42.2117 64.4985 41.4133C63.4848 40.6103 63.3139 39.1376 64.1169 38.1238C79.8715 18.2369 103.439 6.83243 128.779 6.83243C158.462 6.83243 185.981 22.9007 200.6 48.765C201.237 49.8912 200.841 51.3193 199.715 51.9562C199.352 52.1622 198.957 52.2582 198.566 52.2582Z" fill="#FCFBFA"/>
<path d="M80.7143 208.469C55.3745 208.469 31.807 197.065 16.0525 177.18C15.2494 176.166 15.4203 174.694 16.4341 173.891C17.4455 173.088 18.9182 173.256 19.7236 174.272C34.5838 193.031 56.8144 203.789 80.7143 203.789C108.709 203.789 134.667 188.632 148.462 164.233C149.099 163.107 150.529 162.713 151.651 163.348C152.775 163.982 153.173 165.413 152.536 166.537C137.914 192.401 110.395 208.469 80.7143 208.469Z" fill="#FCFBFA"/>
<path d="M209.401 62.794H207.165V60.5558C207.165 59.2634 206.119 58.2145 204.824 58.2145C203.529 58.2145 202.483 59.2634 202.483 60.5558V62.794H200.244C198.95 62.794 197.903 63.8429 197.903 65.1353C197.903 66.4277 198.95 67.4766 200.244 67.4766H202.483V69.7149C202.483 71.0073 203.529 72.0562 204.824 72.0562C206.119 72.0562 207.165 71.0073 207.165 69.7149V67.4766H209.401C210.696 67.4766 211.742 66.4277 211.742 65.1353C211.742 63.8429 210.696 62.794 209.401 62.794Z" fill="#FCFBFA"/>
<path d="M64.7326 15.7621C62.8455 15.7621 61.0732 15.027 59.7386 13.6924C58.4041 12.3602 57.6689 10.5855 57.6689 8.69844C57.6689 6.81136 58.4041 5.039 59.7386 3.70446C62.492 0.951102 66.9732 0.953443 69.7266 3.70446C72.48 6.46017 72.48 10.9391 69.7266 13.6924C68.3921 15.027 66.6197 15.7621 64.7326 15.7621ZM64.7326 6.32203C64.1239 6.32203 63.5128 6.55382 63.0492 7.01739C62.5997 7.46458 62.3515 8.06395 62.3515 8.69844C62.3515 9.33293 62.5997 9.9323 63.0492 10.3795C63.9764 11.3066 65.4865 11.309 66.416 10.3795C67.3432 9.45234 67.3432 7.9422 66.416 7.01271C65.9501 6.55382 65.3414 6.32203 64.7326 6.32203Z" fill="#FCFBFA"/>
<path d="M38.9597 151.075C38.4493 151.075 37.9365 150.911 37.5057 150.569C17.6211 134.815 6.21667 111.247 6.21667 85.9049C6.21667 56.2244 22.285 28.7025 48.1492 14.0811C49.2778 13.4442 50.7036 13.8423 51.3404 14.9661C51.9749 16.0922 51.5792 17.5204 50.4554 18.1573C26.0568 31.9498 10.8993 57.9101 10.8993 85.9049C10.8993 109.807 21.6575 132.038 40.4136 146.896C41.4274 147.701 41.5983 149.174 40.7952 150.185C40.334 150.77 39.6504 151.075 38.9597 151.075Z" fill="#FCFBFA"/>
<path d="M175.111 199.137C174.42 199.137 173.734 198.833 173.273 198.25C172.47 197.236 172.641 195.763 173.654 194.96C192.413 180.1 203.171 157.872 203.171 133.972C203.171 105.975 188.014 80.0143 163.615 66.224C162.491 65.5872 162.093 64.159 162.73 63.0329C163.364 61.9067 164.797 61.511 165.919 62.1478C191.783 76.7692 207.851 104.289 207.851 133.972C207.851 159.309 196.447 182.879 176.562 198.634C176.134 198.973 175.619 199.137 175.111 199.137Z" fill="#FCFBFA"/>
<path d="M160.279 212.358C158.389 212.358 156.617 211.625 155.282 210.288C152.531 207.537 152.531 203.056 155.282 200.301C158.04 197.547 162.515 197.55 165.273 200.298L165.275 200.301C168.026 203.056 168.026 207.537 165.273 210.288C163.938 211.625 162.166 212.358 160.279 212.358ZM160.279 202.918C159.667 202.918 159.059 203.15 158.595 203.613C157.668 204.541 157.668 206.051 158.595 206.98C159.497 207.882 161.061 207.882 161.962 206.98C162.889 206.053 162.889 204.545 161.962 203.616C161.498 203.15 160.887 202.918 160.279 202.918Z" fill="#FCFBFA"/>
<path d="M13.7557 159.714H11.5197V157.476C11.5197 156.181 10.4708 155.135 9.17843 155.135C7.88604 155.135 6.83714 156.181 6.83714 157.476V159.714H4.59886C3.30647 159.714 2.25757 160.761 2.25757 162.056C2.25757 163.35 3.30647 164.397 4.59886 164.397H6.83714V166.633C6.83714 167.927 7.88604 168.974 9.17843 168.974C10.4708 168.974 11.5197 167.927 11.5197 166.633V164.397H13.7557C15.0481 164.397 16.097 163.35 16.097 162.056C16.097 160.763 15.0481 159.714 13.7557 159.714Z" fill="#FCFBFA"/>
</svg>
