<svg width="72" height="85" viewBox="0 0 72 85" fill="none" xmlns="http://www.w3.org/2000/svg">
<path d="M0 0.879639L26.8104 44.825L45.1896 34.7787L24.5055 0.879639H0Z" fill="#212529"/>
<path d="M45.1896 34.7789L34.2561 16.8391L28.615 26.0817C24.8344 26.9085 21.2399 28.3665 18 30.3873L26.7953 44.7391L45.1896 34.7789Z" fill="#111315"/>
<path d="M39.9427 37.6491L32.0573 41.9546L6.99072 0.879639H17.4996L39.9427 37.6491Z" fill="#DD051D"/>
<path d="M47.4946 0.879639L26.8105 34.7787L45.1897 44.825L72.0001 0.879639H47.4946Z" fill="#212529"/>
<path d="M39.9427 37.6493L30.7532 22.5798L28.5999 26.1104C26.8069 26.4953 25.0517 27.0234 23.353 27.6891L32.0573 41.9548L39.9427 37.6493Z" fill="#A60416"/>
<path d="M53.9849 30.4156C47.6527 26.4417 40.0509 24.69 32.4972 25.4642L26.8105 34.7786L45.1897 44.8249L53.9849 30.4156Z" fill="#111315"/>
<path d="M65.0092 0.879639L39.9427 41.9546L32.0573 37.6491L54.5004 0.879639H65.0092Z" fill="#DD051D"/>
<path d="M39.9427 41.9544L48.647 27.6887C45.7442 26.5335 42.6792 25.7841 39.5484 25.4641L32.0573 37.6488L39.9427 41.9544Z" fill="#A60416"/>
<path d="M36 84.1204C52.3313 84.1204 65.5704 71.5906 65.5704 56.1343C65.5704 40.678 52.3313 28.1482 36 28.1482C19.6688 28.1482 6.42969 40.678 6.42969 56.1343C6.42969 71.5906 19.6688 84.1204 36 84.1204Z" fill="#FCCD1D"/>
<path d="M35.9999 76.9443C48.1437 76.9443 57.9881 67.6273 57.9881 56.1342C57.9881 44.641 48.1437 35.324 35.9999 35.324C23.8562 35.324 14.0117 44.641 14.0117 56.1342C14.0117 67.6273 23.8562 76.9443 35.9999 76.9443Z" fill="#F9A215"/>
<path d="M39.23 59.1913V43.9353H32.7851C32.7851 45.1495 32.2755 46.314 31.3683 47.1726C30.4611 48.0312 29.2307 48.5135 27.9477 48.5135H26.3403V54.6131H32.7851V59.1913C32.7811 59.9996 32.4391 60.7734 31.8338 61.3436C31.2285 61.9138 30.4092 62.2339 29.5552 62.2339H26.3403V68.3335H45.6748V62.2339H42.4448C41.5922 62.2339 40.7745 61.9134 40.1716 61.3428C39.5687 60.7722 39.23 59.9983 39.23 59.1913V59.1913Z" fill="#FCCD1D"/>
</svg>
