<svg width="512" height="512" viewBox="0 0 512 512" fill="none" xmlns="http://www.w3.org/2000/svg">
<g clip-path="url(#clip0_178_432)">
<path d="M291.853 504.425H55.2259L10.0959 152.995H252.697L291.853 504.425Z" fill="#FF6243"/>
<path opacity="0.4" d="M101.072 152.995L126.006 504.425H87.944L42.814 152.995H101.072Z" fill="#891C00"/>
<path opacity="0.4" d="M246.004 504.425L263.492 368.243L315.617 504.369L246.004 504.425Z" fill="#891C00"/>
<path opacity="0.4" d="M232.875 152.995L207.943 504.425H166.92V152.995H232.875Z" fill="#891C00"/>
<path d="M26.2421 152.884C26.2421 152.884 10.5891 144.3 20.1831 132.182C29.7771 120.064 36.8461 126.628 39.3711 110.47C39.3711 110.47 38.0041 99.3352 46.2901 89.3372C56.8171 76.6372 67.1431 78.6592 67.1431 78.6592C82.2901 63.5112 85.8241 35.7402 110.061 39.2742C134.298 42.8082 136.318 43.8222 144.397 26.6512C152.476 9.47922 169.755 0.394224 190.149 18.5722C210.543 36.7502 194.89 52.9082 208.019 53.9172C221.147 54.9272 231.246 38.7692 247.909 48.8682C264.572 58.9672 279.72 66.0362 266.087 75.1252C252.454 84.2142 268.107 96.3322 280.225 94.3132C292.343 92.2932 286.284 127.639 298.908 127.134C311.531 126.629 310.328 152.996 310.328 152.996L26.2421 152.884Z" fill="#FFE477"/>
<g opacity="0.54">
<path opacity="0.54" d="M299.816 127.133C287.193 127.638 293.252 92.2923 281.133 94.3123C269.015 96.3323 253.362 84.2133 266.995 75.1243C280.628 66.0353 265.48 58.9663 248.817 48.8673C232.857 39.1943 222.918 53.5993 210.571 53.9463C223.164 61.5173 231.474 67.6363 220.242 75.1243C206.609 84.2133 222.262 96.3313 234.38 94.3123C246.498 92.2923 240.439 127.638 253.063 127.133C265.591 126.632 264.501 152.588 264.484 152.977L311.237 152.995C311.235 152.995 312.439 126.628 299.816 127.133Z" fill="#EEBF00"/>
<path opacity="0.54" d="M162.174 53.9172C175.302 54.9272 185.401 38.7692 202.064 48.8682C202.443 49.0972 202.819 49.3232 203.196 49.5502C201.844 43.3852 205.553 31.4922 191.058 18.5722C172.572 2.09617 156.647 8.01817 147.811 22.0582C162.795 38.7692 149.892 52.9722 162.174 53.9172Z" fill="#EEBF00"/>
</g>
<path d="M256.648 277.664L248.573 193.416H487.312L457.509 504.369H278.377L262.701 340.817L256.648 277.664Z" fill="#52A2E7"/>
<path d="M429.894 28.0769L413.427 11.6099L358.444 66.7659H358.445V158.589H381.732V76.4109L429.894 28.0769Z" fill="#FF6243"/>
<path d="M390.821 193.386C390.821 193.386 367.942 225.206 367.942 321.572C367.942 417.938 443.995 391.114 443.995 504.369H394.168C394.168 391.114 318.115 417.938 318.115 321.572C318.115 225.206 340.994 193.386 340.994 193.386H390.821Z" fill="#3C66B1"/>
<path d="M471.583 149.88H489.791L501.906 193.386H236.982L249.097 149.88H411.017H471.583Z" fill="#C6C3CB"/>
<path opacity="0.43" d="M489.791 149.88H471.583H454.998L467.113 193.386H452.425L422.716 503.359H457.509L487.218 193.386H501.906L489.791 149.88Z" fill="#3C66B1"/>
<g opacity="0.4">
<path opacity="0.4" d="M381.732 111.268H358.444V149.885H381.732V111.268Z" fill="#891C00"/>
</g>
<path d="M85.4081 138.279C88.7791 138.279 91.8551 136.011 92.7371 132.595C92.7641 132.488 95.8471 121.8 103.42 120.463C107.357 119.768 110.011 119.807 112.354 119.839C118.299 119.922 122.955 119.452 128.626 112.598C129.165 111.947 129.74 111.231 130.35 110.467C137.495 101.54 144.254 94.4232 154.606 97.7772C159.655 99.4132 163.275 101.587 166.775 103.691C174.674 108.438 182.844 113.347 199.779 106.868C203.686 105.373 205.64 100.994 204.146 97.0862C202.651 93.1792 198.273 91.2272 194.365 92.7192C184.322 96.5622 181.47 94.8482 174.579 90.7072C170.746 88.4032 165.974 85.5352 159.276 83.3652C138.122 76.5102 124.886 93.0532 118.525 101.001C117.97 101.696 117.448 102.347 116.959 102.94C115.81 104.329 115.291 104.621 115.3 104.622C114.937 104.723 113.625 104.706 112.57 104.69C109.855 104.653 106.139 104.6 100.789 105.544C83.4761 108.598 78.2831 127.984 78.0711 128.807C77.0261 132.858 79.4621 136.989 83.5121 138.033C84.1451 138.2 84.7811 138.279 85.4081 138.279Z" fill="black"/>
<path d="M509.202 191.354L497.088 147.848C496.176 144.572 493.192 142.306 489.792 142.306H471.584C467.401 142.306 464.01 145.696 464.01 149.88C464.01 154.064 467.401 157.454 471.584 157.454H484.039L491.935 185.812H246.955L254.851 157.454H358.445H381.734H411.018C415.201 157.454 418.592 154.064 418.592 149.88C418.592 145.696 415.201 142.306 411.018 142.306H389.308V79.541L435.26 33.423C438.209 30.463 438.205 25.675 435.25 22.72L418.782 6.25201C417.361 4.83201 415.435 4.03401 413.427 4.03401C413.425 4.03401 413.423 4.03401 413.421 4.03401C411.41 4.03601 409.482 4.83701 408.063 6.26101L353.08 61.419C351.665 62.839 350.87 64.762 350.87 66.766V142.306H319.994C318.38 131.998 312.799 118.628 299.587 118.512C298.438 116.46 297.429 111.011 296.803 107.625C295.956 103.051 295.08 98.321 293.385 94.507C289.238 85.177 281.928 85.317 278.98 85.805C274.238 86.6 269.329 83.627 268.458 81.99C268.686 81.676 269.228 81.098 270.289 80.391C276.167 76.473 279.079 71.865 278.943 66.694C278.696 57.309 268.998 51.557 256.72 44.273C255.125 43.327 253.488 42.356 251.836 41.354C238.155 33.062 227.23 38.225 219.252 41.994C215.592 43.724 212.383 45.24 209.522 45.346C209.487 44.696 209.465 43.972 209.447 43.354C209.235 36.147 208.879 24.083 195.191 11.881C181.622 -0.209992 169.912 -0.938992 162.474 0.581008C152.009 2.71901 143.154 10.464 137.542 22.391C134.925 27.952 132.834 31.787 131.132 32.425C128.728 33.328 122.465 32.405 113.801 31.132L111.152 30.743C89.811 27.635 80.428 43.575 72.888 56.388C69.531 62.093 66.06 67.991 61.783 72.268C58.825 75.227 58.825 80.022 61.783 82.98C64.741 85.937 69.537 85.937 72.494 82.98C78.135 77.338 82.105 70.593 85.942 64.07C93.669 50.943 98.201 44.158 108.964 45.734L111.596 46.12C123.712 47.899 130.386 48.882 136.447 46.61C143.704 43.889 147.159 37.529 151.246 28.84C154.721 21.455 159.917 16.564 165.502 15.423C172.827 13.93 180.205 18.822 185.106 23.19C193.925 31.051 194.124 37.824 194.3 43.8C194.449 48.883 194.762 59.458 207.434 60.433C214.521 60.983 220.472 58.17 225.718 55.692C233.302 52.108 237.56 50.42 243.979 54.31C245.673 55.337 247.351 56.332 248.986 57.302C253.793 60.154 260.747 64.279 263.182 66.826C262.867 67.091 262.444 67.413 261.881 67.787C254.28 72.856 251.435 80.165 254.273 87.341C257.69 95.982 269.047 101.957 279.694 100.974C280.569 103.175 281.381 107.564 281.904 110.383C283.659 119.86 286.305 134.156 299.206 133.665C299.231 133.664 299.256 133.663 299.282 133.663C301.631 133.663 303.493 138.04 304.512 142.306H249.094C246.625 142.306 244.386 143.511 242.99 145.42H30.229C30.114 145.348 30.003 145.273 29.884 145.207C28.721 144.569 25.184 141.93 24.696 139.518C24.621 139.15 24.394 138.027 26.121 135.846C29.044 132.154 31.367 130.939 34.058 129.53C40.128 126.354 44.925 122.944 46.854 110.602C47.499 106.469 44.673 102.595 40.54 101.949C36.416 101.304 32.534 104.13 31.887 108.263C30.984 114.043 30.381 114.359 27.036 116.11C23.716 117.847 19.167 120.226 14.245 126.444C9.20998 132.805 9.07498 138.7 9.84998 142.525C10.055 143.54 10.359 144.497 10.71 145.419H10.095C7.91798 145.419 5.84598 146.356 4.40798 147.99C2.96998 149.624 2.30398 151.798 2.58198 153.957L47.713 505.387C48.198 509.166 51.415 511.997 55.225 511.997H87.912C87.919 511.997 87.926 511.998 87.933 511.998C87.938 511.998 87.943 511.997 87.948 511.997H245.996C246.001 511.997 246.006 511.998 246.011 511.998C246.018 511.998 246.025 511.997 246.032 511.997H291.851C292.152 511.997 292.446 511.975 292.738 511.94H457.507C461.41 511.94 464.674 508.973 465.047 505.089L494.197 200.958H501.904C504.272 200.958 506.503 199.85 507.935 197.965C509.369 196.083 509.837 193.636 509.202 191.354ZM366.018 69.895L413.435 22.328L419.192 28.085L376.367 71.064C374.953 72.484 374.158 74.407 374.158 76.41V142.305H366.017L366.018 69.895ZM285.259 496.795L270.24 340.094C269.84 335.93 266.135 332.871 261.978 333.277C257.813 333.677 254.761 337.376 255.161 341.54L270.046 496.851H254.611L262.868 432.554C263.4 428.405 260.47 424.61 256.32 424.077C252.168 423.538 248.375 426.475 247.843 430.624L239.338 496.851H216.071L237.064 200.96H241.686L249.108 278.387C249.507 282.551 253.202 285.606 257.371 285.204C261.535 284.804 264.587 281.105 264.188 276.941L256.909 200.99H328.629C321.419 218.051 310.542 254.843 310.542 321.571C310.542 370.901 329.804 390.566 348.431 409.584C367.139 428.683 384.844 446.799 386.462 496.793H285.259V496.795ZM174.494 496.851V160.569H224.745L200.886 496.852H174.494V496.851ZM133.062 496.851L109.203 160.568H159.346V496.851H133.062ZM94.608 496.851L51.423 160.569H94.016L117.875 496.852H94.608V496.851ZM359.252 398.986C341.243 380.599 325.689 364.719 325.689 321.572C325.689 245.919 340.139 211.078 345.341 200.991H378.455C371.244 218.052 360.368 254.844 360.368 321.572C360.368 370.902 379.63 390.567 398.257 409.585C416.965 428.684 434.67 446.8 436.288 496.794H401.61C399.84 440.462 378.334 418.466 359.252 398.986ZM18.704 160.569H36.151L79.336 496.852H61.889L18.704 160.569ZM451.181 491.007C448.164 438.928 427.493 417.784 409.081 398.986C391.071 380.599 375.518 364.719 375.518 321.572C375.518 245.919 389.968 211.078 395.17 200.991H478.978L451.181 491.007Z" fill="black"/>
</g>
<defs>
<clipPath id="clip0_178_432">
<rect width="512" height="512" fill="white"/>
</clipPath>
</defs>
</svg>
