<svg width="512" height="512" viewBox="0 0 512 512" fill="none" xmlns="http://www.w3.org/2000/svg">
<path d="M56.7269 159.284C60.3959 167.797 65.8039 183.188 65.7799 199.929C65.7769 201.94 67.0719 203.763 69.0379 204.185C73.6119 205.164 81.2359 208.432 81.2359 219.324C81.2359 219.324 81.2359 229.086 72.3519 232.974C70.6679 233.71 69.6019 235.396 69.7849 237.224C71.5899 255.27 79.9429 344.078 76.9929 414.045C76.9929 414.045 85.6449 419.813 93.9669 425.009C96.5809 426.641 100.03 425.353 100.903 422.398C102.534 416.883 104.967 408.335 106.696 400.843C106.696 400.843 112.348 417.397 112.818 434.439C112.885 436.86 114.83 438.789 117.25 438.904C129.082 439.467 162.102 438.701 184.962 415.46C184.962 415.46 230.935 378.685 275.37 394.715C275.37 394.715 333.276 288.695 283.401 118.224C283.401 118.224 266.569 117.995 249.873 122.056C247.445 122.647 245.611 124.626 245.27 127.101C244.349 133.787 242.234 147.409 239.284 155.838C238.725 157.437 236.428 157.335 235.974 155.704C234.664 150.999 232.582 143.355 230.671 135.612C229.846 132.272 226.49 130.248 223.171 131.155C214.582 133.503 197.098 139.788 171.76 156.145C171.76 156.145 135.477 179.154 96.3459 163.446C93.3729 162.253 90.4379 161.034 87.3969 160.027C81.2709 158 70.7039 154.765 61.3919 153.22C57.9979 152.656 55.3639 156.125 56.7269 159.284Z" fill="url(#paint0_linear_178_497)"/>
<path d="M275.369 394.714C275.369 394.714 333.275 288.694 283.4 118.223C283.4 118.223 274.474 118.11 263.187 119.609C268.837 151.713 289.067 286.776 250.61 390.677C258.711 390.569 267.066 391.718 275.369 394.714Z" fill="#F79A80"/>
<path d="M122.715 215.244C120.001 215.684 118.006 218.028 118.006 220.778V247.26C118.006 250.357 120.516 252.866 123.612 252.866H125.603C128.865 252.866 131.438 250.093 131.193 246.84L129.202 220.358C128.956 217.082 125.958 214.719 122.715 215.244Z" fill="#E2526F"/>
<path d="M147.029 221.712V241.481C147.029 244.338 150.233 246.025 152.588 244.408L161.923 237.999C164.597 236.163 165.675 232.741 164.536 229.705C164.095 228.528 163.348 227.491 162.371 226.7L152.813 218.955C150.493 217.073 147.029 218.725 147.029 221.712Z" fill="#E2526F"/>
<path d="M170.247 214.061V215.446C170.247 217.92 172.097 220.002 174.553 220.294C177.457 220.64 180.011 218.371 180.011 215.446V214.061C180.011 211.8 178.458 209.834 176.259 209.312C173.191 208.582 170.247 210.907 170.247 214.061Z" fill="#E2526F"/>
<path d="M206.976 200.54C205.315 201.287 204.308 203.001 204.461 204.814L206.062 223.706C206.57 229.701 213.262 233.083 218.342 229.86C219.601 229.061 220.837 228.225 221.973 227.378C225.61 224.664 226.238 219.462 223.403 215.918L212.086 201.772C210.864 200.243 208.761 199.736 206.976 200.54Z" fill="#E2526F"/>
<path d="M225.903 197.861L232.008 206.407C233.482 208.47 236.673 207.99 237.475 205.585L239.041 200.889C239.394 199.829 239.15 198.662 238.404 197.832L233.476 192.357C232.487 191.258 230.861 191.009 229.589 191.763L226.846 193.389C225.283 194.315 224.847 196.382 225.903 197.861Z" fill="#E2526F"/>
<path d="M272.655 176.88L260.765 178.757C258.379 179.134 256.769 181.378 257.203 183.754C258.028 188.265 259.47 195.66 261.235 202.723C262.239 206.733 267.768 207.159 269.372 203.349L278.023 182.791C279.215 179.959 277.135 176.827 274.062 176.827H273.325C273.102 176.827 272.877 176.845 272.655 176.88Z" fill="#E2526F"/>
<path d="M124.167 327.984L123.771 331.443C123.449 334.254 124.983 336.949 127.565 338.106C130.023 339.208 132.905 338.677 134.81 336.772L137.771 333.811C139.675 331.907 140.206 329.024 139.104 326.566L138.88 326.068C137.834 323.734 135.514 322.232 132.957 322.232H130.616C127.317 322.232 124.543 324.707 124.167 327.984Z" fill="#E2526F"/>
<path d="M127.459 360.823L128.828 352.953C129.116 351.301 130.55 350.094 132.228 350.094H149.462C153.223 350.094 154.271 355.257 150.806 356.723L132.203 364.592C129.687 365.656 126.991 363.515 127.459 360.823Z" fill="#E2526F"/>
<path d="M180.376 311.003L183.766 341.451C183.992 343.484 185.918 344.874 187.919 344.444C190.925 343.798 195.059 342.738 197.635 341.368C198.838 340.728 199.523 339.428 199.422 338.069L198.225 322.02C198.152 321.046 198.496 320.087 199.17 319.38L203.251 315.105C203.864 314.463 204.206 313.61 204.206 312.722V307.977C204.206 305.86 202.316 304.242 200.224 304.568L183.276 307.212C181.449 307.496 180.171 309.167 180.376 311.003Z" fill="#E2526F"/>
<path d="M216.361 304.4L217.084 308.827C217.53 311.562 220.856 312.681 222.866 310.772C223.552 310.121 223.94 309.216 223.94 308.27V303.715C223.94 301.567 221.998 299.94 219.883 300.318L219.16 300.447C217.304 300.779 216.057 302.539 216.361 304.4Z" fill="#E2526F"/>
<path d="M238.313 298.295L230.73 327.98C230.122 330.359 232.124 332.594 234.556 332.251L240.398 331.425C241.778 331.231 242.893 330.237 243.247 328.889C244.166 325.396 246.851 318.814 254.208 317.298C255.58 317.015 256.629 315.892 256.854 314.509L257.681 309.461C257.885 308.211 257.388 306.948 256.385 306.174L243.765 296.42C241.802 294.901 238.927 295.891 238.313 298.295Z" fill="#E2526F"/>
<path d="M290.221 284.347L279.721 289.363C278.222 290.079 277.446 291.76 277.873 293.365L284.099 316.726C285.024 320.198 289.979 320.136 290.792 316.637C292.879 307.664 295.184 295.833 295.17 287.405C295.165 284.884 292.495 283.26 290.221 284.347Z" fill="#C7304D"/>
<path d="M280.299 198.448L277.678 205.608C277.242 206.797 278.266 208.008 279.511 207.779L284.869 206.787C285.908 206.595 286.495 205.482 286.066 204.516L283.33 198.347C282.733 197.003 280.805 197.067 280.299 198.448Z" fill="#C7304D"/>
<path d="M275.369 106.938C275.369 106.938 288.576 89.4812 319.068 75.1592C341.472 64.6372 366.451 60.3192 391.074 62.8492C402.868 64.0612 414.451 66.8262 420.299 72.6742C420.299 72.6742 416.312 105.237 402.356 151.756C402.355 151.756 305.883 161.137 275.369 106.938Z" fill="#A34F46"/>
<path d="M338.829 107.26L343.342 148.416C374.102 154.483 402.356 151.755 402.356 151.755C416.312 105.236 420.299 72.6738 420.299 72.6738C420.299 72.6738 400.032 110.223 338.829 107.26Z" fill="#F79A80"/>
<path d="M455.64 126.531C455.64 126.531 438.52 108.909 402.622 107.26L394.228 152.376C394.229 152.376 443.186 151.305 455.64 126.531Z" fill="#A34F46"/>
<path d="M391.76 97.4849C388.899 112.011 382.321 133.272 366.383 151.56C386.881 153.238 402.356 151.754 402.356 151.754C416.312 105.235 420.299 72.6729 420.299 72.6729C420.299 72.6729 412.441 87.2149 391.76 97.4849Z" fill="#CE735F"/>
<path d="M275.369 106.938C275.369 106.938 337.092 165.721 455.64 126.532C455.64 126.532 434.086 343.052 396.856 420.45C396.856 420.45 375.29 443.676 353.528 449.676C350.521 450.505 347.481 448.409 346.984 445.33L342.971 420.45C342.971 420.45 338.126 434.179 330.635 446.971C329.317 449.222 326.595 450.223 324.152 449.308C313.498 445.32 284.374 433.916 262.76 420.745C258.336 418.05 256.737 412.44 259.11 407.837C273.513 379.903 316.763 276.647 275.369 106.938Z" fill="url(#paint1_linear_178_497)"/>
<path d="M382.049 139.908C390.04 147.248 403.245 163.615 401.548 190.77C401.548 190.77 399.934 290.548 381.973 389.125C379.114 404.819 372.752 419.802 362.539 432.057C360.93 433.988 359.19 435.911 357.312 437.791C355.719 439.387 353.052 439.055 351.978 437.072L342.97 420.448L346.983 445.327C347.48 448.406 350.52 450.502 353.527 449.674C375.289 443.674 396.855 420.448 396.855 420.448C434.085 343.051 455.639 126.53 455.639 126.53C427.98 135.675 403.458 139.44 382.049 139.908Z" fill="#F79A80"/>
<path d="M274.063 176.827H273.326C273.101 176.827 272.877 176.845 272.655 176.88L270.641 177.197C271.197 183.415 271.699 189.973 272.129 196.797L278.024 182.791C279.217 179.959 277.137 176.827 274.063 176.827Z" fill="#9C304D"/>
<defs>
<linearGradient id="paint0_linear_178_497" x1="65.3344" y1="188.097" x2="367.386" y2="393.308" gradientUnits="userSpaceOnUse">
<stop offset="0.0103" stop-color="#FFDDCD"/>
<stop offset="1" stop-color="#F79A80"/>
</linearGradient>
<linearGradient id="paint1_linear_178_497" x1="286.225" y1="204.067" x2="562.913" y2="468.458" gradientUnits="userSpaceOnUse">
<stop offset="0.0103" stop-color="#FFDDCD"/>
<stop offset="1" stop-color="#F79A80"/>
</linearGradient>
</defs>
</svg>
