<svg width="256" height="256" viewBox="0 0 256 256" fill="none" xmlns="http://www.w3.org/2000/svg">
<path d="M238.257 62.0847C237.273 62.0847 236.318 61.5688 235.802 60.6525C219.196 31.2726 187.938 13.0204 154.225 13.0204C125.446 13.0204 98.6765 25.9751 80.7824 48.5605C79.8154 49.7813 78.0449 49.9815 76.8213 49.0201C75.6005 48.0531 75.3947 46.2797 76.3617 45.059C95.3328 21.1175 123.712 7.38184 154.225 7.38184C189.968 7.38184 223.106 26.7307 240.71 57.8755C241.477 59.2316 241 60.9514 239.644 61.7182C239.205 61.9663 238.728 62.0847 238.257 62.0847Z" fill="#908DAF"/>
<path d="M96.3476 250.183C65.8343 250.183 37.4552 236.45 18.487 212.506C17.52 211.285 17.7258 209.512 18.9465 208.545C20.1645 207.577 21.9378 207.78 22.9076 209.004C40.8017 231.592 67.571 244.544 96.3504 244.544C130.061 244.544 161.318 226.292 177.93 196.912C178.697 195.556 180.419 195.082 181.77 195.846C183.123 196.61 183.602 198.333 182.835 199.686C165.226 230.837 132.088 250.183 96.3476 250.183Z" fill="#908DAF"/>
<path d="M251.305 74.7687H248.612V72.0735C248.612 70.5172 247.352 69.2542 245.793 69.2542C244.234 69.2542 242.974 70.5172 242.974 72.0735V74.7687H240.279C238.719 74.7687 237.459 76.0317 237.459 77.588C237.459 79.1443 238.719 80.4073 240.279 80.4073H242.974V83.1026C242.974 84.6588 244.234 85.9219 245.793 85.9219C247.352 85.9219 248.612 84.6588 248.612 83.1026V80.4073H251.305C252.864 80.4073 254.124 79.1443 254.124 77.588C254.124 76.0317 252.864 74.7687 251.305 74.7687Z" fill="#908DAF"/>
<path d="M77.103 18.1375C74.8306 18.1375 72.6964 17.2523 71.0894 15.6453C69.4824 14.0411 68.5972 11.9041 68.5972 9.6317C68.5972 7.35934 69.4824 5.22513 71.0894 3.61813C74.4049 0.302637 79.8011 0.305456 83.1166 3.61813C86.4321 6.93645 86.4321 12.3298 83.1166 15.6453C81.5096 17.2523 79.3754 18.1375 77.103 18.1375ZM77.103 6.77011C76.37 6.77011 75.6341 7.04922 75.0759 7.60744C74.5346 8.14593 74.2358 8.86767 74.2358 9.6317C74.2358 10.3957 74.5346 11.1175 75.0759 11.656C76.1924 12.7724 78.0108 12.7752 79.1301 11.656C80.2465 10.5395 80.2465 8.72107 79.1301 7.6018C78.5719 7.04922 77.8388 6.77011 77.103 6.77011Z" fill="#908DAF"/>
<path d="M46.0682 181.071C45.4535 181.071 44.8361 180.873 44.3174 180.462C20.3759 161.493 6.64307 133.114 6.64307 102.598C6.64307 66.858 25.9919 33.7171 57.1367 16.1134C58.4956 15.3465 60.2126 15.8258 60.9794 17.1791C61.7435 18.5352 61.267 20.2549 59.9137 21.0218C30.531 37.6275 12.2817 68.8879 12.2817 102.598C12.2817 131.38 25.2364 158.15 47.8218 176.041C49.0425 177.011 49.2483 178.784 48.2813 180.002C47.7231 180.707 46.8999 181.071 46.0682 181.071Z" fill="#908DAF"/>
<path d="M210.016 238.948C209.184 238.948 208.358 238.581 207.803 237.879C206.836 236.659 207.042 234.885 208.263 233.918C230.851 216.024 243.803 189.258 243.803 160.478C243.803 126.765 225.55 95.5076 196.171 78.8991C194.817 78.1323 194.338 76.4125 195.105 75.0564C195.869 73.7003 197.594 73.2239 198.945 73.9907C230.09 91.5972 249.438 124.735 249.438 160.478C249.438 190.989 235.706 219.371 211.761 238.339C211.245 238.748 210.628 238.948 210.016 238.948Z" fill="#908DAF"/>
<path d="M192.156 254.866C189.881 254.866 187.749 253.983 186.14 252.373C182.827 249.061 182.827 243.665 186.14 240.346C189.461 237.031 194.848 237.034 198.169 240.343L198.172 240.346C201.485 243.665 201.485 249.061 198.169 252.373C196.56 253.983 194.428 254.866 192.156 254.866ZM192.156 243.498C191.42 243.498 190.687 243.777 190.129 244.336C189.012 245.452 189.012 247.27 190.129 248.39C191.214 249.475 193.098 249.475 194.183 248.39C195.299 247.273 195.299 245.458 194.183 244.338C193.622 243.78 192.889 243.498 192.156 243.498Z" fill="#908DAF"/>
<path d="M15.7185 191.476H13.0261V188.781C13.0261 187.222 11.763 185.962 10.2068 185.962C8.65051 185.962 7.38746 187.222 7.38746 188.781V191.476H4.69503C3.13878 191.476 1.87573 192.737 1.87573 194.296C1.87573 195.855 3.13878 197.115 4.69503 197.115H7.39028V199.808C7.39028 201.367 8.65333 202.627 10.2096 202.627C11.7658 202.627 13.0289 201.367 13.0289 199.808V197.115H15.7213C17.2776 197.115 18.5406 195.855 18.5406 194.296C18.5406 192.737 17.2776 191.476 15.7185 191.476Z" fill="#908DAF"/>
<path d="M128 178.747C156.027 178.747 178.747 156.027 178.747 128C178.747 99.9731 156.027 77.2527 128 77.2527C99.9728 77.2527 77.2524 99.9731 77.2524 128C77.2524 156.027 99.9728 178.747 128 178.747Z" fill="#908DAF"/>
<path d="M140.058 201.299H115.939C112.793 201.299 110.233 198.739 110.233 195.593V192.004C110.233 190.095 109.077 188.415 107.36 187.823C104.961 186.994 102.578 186.002 100.278 184.879C98.6568 184.084 96.672 184.454 95.3356 185.784L92.7616 188.358C90.5344 190.583 86.9172 190.58 84.6928 188.361L67.6388 171.304C66.5619 170.225 65.967 168.792 65.967 167.267C65.967 165.742 66.559 164.31 67.6388 163.23L70.2129 160.659C71.5464 159.325 71.9101 157.338 71.1178 155.714C69.9986 153.422 69.0062 151.042 68.1773 148.637C67.5853 146.918 65.9021 145.759 63.9963 145.759H60.4045C57.2582 145.762 54.6982 143.205 54.6982 140.058V115.939C54.6982 112.793 57.2582 110.233 60.4045 110.233H63.9963C65.905 110.233 67.5853 109.077 68.1773 107.357C69.009 104.952 69.9986 102.57 71.1178 100.278C71.9101 98.6539 71.5464 96.6692 70.2129 95.3356L67.6388 92.7616C65.4144 90.5372 65.4144 86.9172 67.6388 84.6928L84.6928 67.6388C86.9172 65.4144 90.5372 65.4144 92.7616 67.6388L95.3356 70.2129C96.6692 71.5464 98.6568 71.9101 100.278 71.1178C102.57 69.9986 104.952 69.0062 107.357 68.1773C109.077 67.5853 110.233 65.9021 110.233 63.9963V60.4045C110.233 57.2582 112.793 54.6982 115.939 54.6982H140.055C143.202 54.6982 145.759 57.2582 145.759 60.4045V63.9963C145.759 65.905 146.915 67.5853 148.634 68.1773C151.042 69.009 153.422 69.9986 155.717 71.1178C157.338 71.9101 159.322 71.5464 160.659 70.2129L163.233 67.6388C165.387 65.4821 169.145 65.4849 171.302 67.6388L188.356 84.6928C190.577 86.9172 190.577 90.5372 188.358 92.7616L185.782 95.3385C184.448 96.6748 184.082 98.6596 184.877 100.281C185.993 102.559 186.98 104.941 187.82 107.357C188.412 109.077 190.095 110.233 192.001 110.233H195.59C198.736 110.233 201.296 112.793 201.296 115.939V140.058C201.296 143.205 198.736 145.762 195.59 145.762H192.001C190.092 145.762 188.412 146.918 187.82 148.637C186.994 151.031 186.004 153.41 184.879 155.717C184.087 157.34 184.448 159.325 185.782 160.662L188.356 163.236C190.577 165.457 190.58 169.077 188.358 171.302L171.302 188.358C169.08 190.577 165.463 190.583 163.236 188.361L160.659 185.784C159.322 184.448 157.338 184.087 155.714 184.879C153.436 185.996 151.056 186.983 148.637 187.823C146.918 188.415 145.759 190.098 145.759 192.004V195.593C145.764 198.739 143.207 201.299 140.058 201.299ZM98.4791 178.824C99.9367 178.824 101.4 179.148 102.759 179.813C104.854 180.837 107.022 181.739 109.204 182.491C113.196 183.867 115.877 187.69 115.877 192.004V195.593L140.064 195.66L140.129 192.001C140.129 187.69 142.81 183.864 146.802 182.489C149.001 181.725 151.169 180.825 153.244 179.81C157.033 177.961 161.615 178.759 164.651 181.795L167.225 184.369L184.375 167.315L181.801 164.645C178.764 161.609 177.966 157.025 179.819 153.238C180.842 151.141 181.744 148.97 182.494 146.796C183.87 142.804 187.696 140.123 192.007 140.123H195.596L195.663 115.939L195.596 115.871H192.007C187.693 115.871 183.87 113.19 182.494 109.198C181.73 106.999 180.831 104.831 179.816 102.756C177.966 98.9697 178.764 94.3883 181.801 91.3491L184.375 88.7751L167.321 71.6253L164.651 74.1993C161.62 77.2357 157.036 78.0364 153.247 76.1841C151.158 75.1635 148.99 74.2642 146.799 73.5058C142.81 72.1272 140.129 68.3042 140.129 63.9935V60.4017L115.945 60.334L115.877 63.9935C115.877 68.3042 113.196 72.1272 109.207 73.5058C107.019 74.2642 104.851 75.1635 102.762 76.1841C98.9782 78.0364 94.3912 77.2385 91.3576 74.1993L88.7836 71.6253L71.6338 88.6793L74.2022 91.3491C77.2385 94.3855 78.0364 98.9697 76.1869 102.753C75.1664 104.842 74.267 107.01 73.5086 109.198C72.13 113.187 68.307 115.869 63.9963 115.869H60.4045L60.3368 140.058L63.9963 140.123C68.307 140.123 72.13 142.804 73.5086 146.796C74.267 148.984 75.1664 151.152 76.1869 153.238C78.0364 157.028 77.2414 161.612 74.2022 164.645L71.6281 167.219L88.6821 184.369L91.352 181.795C93.2973 179.85 95.8798 178.824 98.4791 178.824ZM128.048 168.017C117.43 168.017 107.244 163.839 99.7027 156.297C91.4084 148.006 87.1822 136.506 88.1069 124.758C89.635 105.389 105.392 89.635 124.758 88.1069C136.512 87.1879 148 91.4084 156.3 99.7027C164.592 107.997 168.818 119.491 167.89 131.242C166.365 150.608 150.608 166.368 131.239 167.893C130.174 167.972 129.111 168.017 128.048 168.017ZM127.946 93.6187C127.036 93.6187 126.12 93.6553 125.2 93.7286C108.569 95.0396 95.0368 108.572 93.7258 125.203C92.9279 135.305 96.5592 145.186 103.686 152.311C110.811 159.435 120.695 163.086 130.797 162.269C147.428 160.958 160.958 147.428 162.269 130.794C163.066 120.692 159.435 110.814 152.311 103.686C145.832 97.2076 137.078 93.6187 127.946 93.6187Z" fill="white"/>
</svg>
