<svg width="514" height="514" viewBox="0 0 514 514" fill="none" xmlns="http://www.w3.org/2000/svg">
<g clip-path="url(#clip0_178_309)">
<path fill-rule="evenodd" clip-rule="evenodd" d="M41.557 420.27C43.9114 414.237 47.4796 408.751 52.0405 404.152C56.6014 399.554 62.0579 395.941 68.072 393.537C68.7272 393.285 69.2893 392.838 69.6827 392.256C70.076 391.674 70.2817 390.986 70.272 390.284C70.2811 389.582 70.0752 388.894 69.682 388.313C69.2887 387.731 68.7269 387.284 68.072 387.031C62.0584 384.63 56.602 381.019 52.0408 376.423C47.4795 371.827 43.9106 366.343 41.555 360.311C41.313 359.653 40.8733 359.085 40.2961 358.686C39.7189 358.288 39.0325 358.077 38.331 358.084C37.6295 358.077 36.9431 358.288 36.3659 358.686C35.7887 359.085 35.349 359.653 35.107 360.311C32.7503 366.342 29.181 371.825 24.6199 376.421C20.0588 381.017 14.6029 384.629 8.58997 387.031C7.93659 387.286 7.37641 387.733 6.9842 388.315C6.59199 388.896 6.38644 389.583 6.39498 390.284C6.38526 390.986 6.59093 391.674 6.98428 392.256C7.37763 392.838 7.93976 393.285 8.59498 393.537C14.6093 395.941 20.066 399.554 24.6271 404.152C29.1882 408.75 32.7565 414.236 35.111 420.27C35.357 420.925 35.7984 421.488 36.3752 421.884C36.952 422.28 37.6364 422.489 38.336 422.483C39.0354 422.489 39.7197 422.28 40.2963 421.884C40.873 421.488 41.3141 420.925 41.56 420.27" fill="#F9B317"/>
<path fill-rule="evenodd" clip-rule="evenodd" d="M52.063 376.443C50.463 392.537 41.3083 401.763 24.599 404.123C29.1713 408.728 32.748 414.224 35.107 420.269C35.3531 420.924 35.7944 421.488 36.3712 421.883C36.948 422.279 37.6325 422.488 38.332 422.482C39.0314 422.488 39.7157 422.279 40.2924 421.883C40.869 421.487 41.3101 420.924 41.556 420.269C43.9104 414.236 47.4786 408.75 52.0396 404.151C56.6005 399.553 62.0569 395.94 68.071 393.536C68.7262 393.284 69.2884 392.837 69.6817 392.255C70.0751 391.674 70.2807 390.985 70.271 390.283C70.2801 389.581 70.0743 388.893 69.681 388.312C69.2877 387.73 68.7259 387.283 68.071 387.03C62.0629 384.641 56.613 381.037 52.063 376.443" fill="#DB8E19"/>
<path fill-rule="evenodd" clip-rule="evenodd" d="M268.685 444.616L288.438 464.536C289.309 465.422 289.797 466.614 289.797 467.856C289.797 469.098 289.309 470.29 288.438 471.176L268.685 491.085C268.254 491.519 267.741 491.864 267.176 492.099C266.611 492.334 266.005 492.455 265.393 492.455C264.782 492.455 264.176 492.334 263.611 492.099C263.046 491.864 262.533 491.519 262.102 491.085L242.347 471.179C241.476 470.293 240.988 469.101 240.988 467.859C240.988 466.617 241.476 465.425 242.347 464.539L262.102 444.619C262.533 444.185 263.046 443.84 263.611 443.605C264.176 443.37 264.782 443.249 265.393 443.249C266.005 443.249 266.611 443.37 267.176 443.605C267.741 443.84 268.254 444.185 268.685 444.619" fill="#F0393C"/>
<path fill-rule="evenodd" clip-rule="evenodd" d="M278.561 454.576C276.33 468.31 267.553 477.159 252.228 481.123L262.104 491.083C262.535 491.517 263.047 491.862 263.612 492.097C264.177 492.332 264.782 492.453 265.394 492.453C266.006 492.453 266.611 492.332 267.176 492.097C267.741 491.862 268.253 491.517 268.684 491.083L288.437 471.177C289.309 470.292 289.798 469.1 289.798 467.857C289.798 466.615 289.309 465.422 288.437 464.537L278.561 454.577" fill="#CB3325"/>
<path fill-rule="evenodd" clip-rule="evenodd" d="M479.165 222.031C479.163 221.484 479.269 220.943 479.476 220.437C479.684 219.932 479.989 219.472 480.374 219.085C480.759 218.697 481.217 218.389 481.721 218.179C482.225 217.968 482.766 217.859 483.312 217.857C483.858 217.859 484.399 217.968 484.903 218.179C485.407 218.389 485.865 218.697 486.25 219.085C486.635 219.472 486.94 219.932 487.148 220.437C487.355 220.943 487.461 221.484 487.459 222.031V240.404C487.461 240.95 487.355 241.491 487.148 241.997C486.94 242.502 486.635 242.962 486.25 243.349C485.865 243.737 485.407 244.045 484.903 244.255C484.399 244.466 483.858 244.575 483.312 244.576C482.766 244.575 482.225 244.466 481.721 244.255C481.217 244.045 480.759 243.737 480.374 243.349C479.989 242.962 479.684 242.502 479.476 241.997C479.269 241.491 479.163 240.95 479.165 240.404V222.031Z" fill="#43BB4E"/>
<path fill-rule="evenodd" clip-rule="evenodd" d="M456.804 217.857C455.699 217.851 454.643 217.406 453.866 216.621C453.089 215.836 452.655 214.775 452.66 213.67C452.658 213.124 452.763 212.583 452.97 212.077C453.178 211.572 453.482 211.112 453.867 210.725C454.252 210.337 454.709 210.029 455.213 209.818C455.717 209.608 456.258 209.498 456.804 209.496H475.023C475.569 209.498 476.11 209.608 476.614 209.818C477.117 210.029 477.575 210.337 477.96 210.725C478.345 211.112 478.649 211.572 478.856 212.077C479.064 212.583 479.169 213.124 479.167 213.67C479.172 214.775 478.738 215.836 477.961 216.621C477.184 217.406 476.127 217.851 475.023 217.857H456.804Z" fill="#43BB4E"/>
<path fill-rule="evenodd" clip-rule="evenodd" d="M491.604 217.857C490.499 217.851 489.443 217.406 488.665 216.621C487.888 215.836 487.454 214.775 487.459 213.67C487.457 213.124 487.563 212.583 487.77 212.077C487.977 211.572 488.282 211.112 488.667 210.725C489.052 210.337 489.509 210.029 490.013 209.818C490.517 209.607 491.058 209.498 491.604 209.496H509.823C510.369 209.498 510.91 209.607 511.414 209.818C511.918 210.029 512.375 210.337 512.76 210.725C513.145 211.112 513.45 211.572 513.657 212.077C513.864 212.583 513.97 213.124 513.968 213.67C513.972 214.775 513.538 215.836 512.761 216.621C511.984 217.406 510.927 217.85 509.823 217.857H491.604Z" fill="#43BB4E"/>
<path fill-rule="evenodd" clip-rule="evenodd" d="M479.165 186.95C479.161 185.845 479.595 184.784 480.372 183.999C481.15 183.214 482.207 182.77 483.312 182.763C484.417 182.769 485.474 183.214 486.252 183.999C487.029 184.784 487.463 185.845 487.459 186.95V205.31C487.463 206.415 487.029 207.477 486.252 208.262C485.474 209.047 484.417 209.491 483.312 209.497C482.207 209.491 481.15 209.046 480.372 208.261C479.595 207.476 479.161 206.415 479.165 205.31V186.95Z" fill="#43BB4E"/>
<path fill-rule="evenodd" clip-rule="evenodd" d="M136.91 152.87C136.905 151.766 137.339 150.704 138.116 149.919C138.893 149.134 139.949 148.69 141.054 148.683C142.159 148.689 143.216 149.134 143.994 149.919C144.771 150.704 145.205 151.765 145.201 152.87V171.23C145.205 172.335 144.771 173.397 143.994 174.182C143.216 174.967 142.159 175.411 141.054 175.417C139.949 175.411 138.893 174.966 138.116 174.181C137.339 173.396 136.905 172.335 136.91 171.23V152.87Z" fill="#F0393C"/>
<path fill-rule="evenodd" clip-rule="evenodd" d="M136.91 187.95C136.908 187.404 137.014 186.863 137.221 186.358C137.428 185.853 137.733 185.393 138.118 185.006C138.502 184.618 138.96 184.31 139.464 184.099C139.967 183.889 140.508 183.779 141.054 183.777C141.6 183.779 142.141 183.888 142.645 184.099C143.149 184.309 143.607 184.617 143.992 185.005C144.377 185.392 144.682 185.852 144.89 186.357C145.097 186.863 145.203 187.404 145.201 187.95V206.311C145.205 207.415 144.771 208.477 143.994 209.262C143.216 210.047 142.159 210.491 141.054 210.498C139.949 210.491 138.893 210.046 138.116 209.261C137.339 208.476 136.905 207.415 136.91 206.311V187.95Z" fill="#F0393C"/>
<path fill-rule="evenodd" clip-rule="evenodd" d="M114.546 183.777C113.441 183.771 112.384 183.326 111.606 182.541C110.829 181.756 110.395 180.695 110.399 179.59C110.397 179.043 110.503 178.502 110.71 177.997C110.917 177.491 111.222 177.031 111.608 176.644C111.993 176.256 112.45 175.948 112.955 175.737C113.459 175.527 114 175.418 114.546 175.416H132.763C133.309 175.418 133.85 175.527 134.354 175.738C134.858 175.948 135.316 176.256 135.701 176.644C136.086 177.032 136.391 177.491 136.599 177.997C136.806 178.502 136.912 179.043 136.91 179.59C136.914 180.695 136.48 181.756 135.702 182.541C134.925 183.326 133.868 183.771 132.763 183.777H114.546Z" fill="#F0393C"/>
<path fill-rule="evenodd" clip-rule="evenodd" d="M149.347 183.777C148.242 183.771 147.185 183.326 146.407 182.541C145.63 181.756 145.196 180.695 145.2 179.59C145.198 179.043 145.304 178.502 145.511 177.997C145.719 177.491 146.024 177.032 146.409 176.644C146.794 176.256 147.252 175.948 147.756 175.738C148.26 175.527 148.801 175.418 149.347 175.416H167.564C168.11 175.418 168.651 175.527 169.155 175.738C169.659 175.949 170.116 176.256 170.501 176.644C170.886 177.032 171.191 177.491 171.398 177.997C171.606 178.502 171.711 179.044 171.709 179.59C171.714 180.694 171.28 181.756 170.502 182.541C169.725 183.326 168.669 183.77 167.564 183.777H149.347Z" fill="#F0393C"/>
<path fill-rule="evenodd" clip-rule="evenodd" d="M54.718 172.857L74.418 254.737C74.4866 255.016 74.58 255.288 74.697 255.55C80.786 269.083 72.997 288.523 55.73 301.003C36.83 314.683 13.742 314.856 4.15496 301.39C-5.43204 287.924 2.11798 265.937 21.015 252.257C27.1792 247.724 34.219 244.523 41.687 242.857C42.2874 242.737 42.8564 242.493 43.3582 242.142C43.86 241.791 44.2838 241.34 44.603 240.817C44.9367 240.297 45.16 239.714 45.2589 239.104C45.3578 238.493 45.3303 237.869 45.178 237.27L22.226 141.924C21.9787 140.947 22.0631 139.915 22.4658 138.99C22.8685 138.066 23.5668 137.302 24.451 136.817L102.604 93.2573C103.129 92.9667 103.706 92.7826 104.302 92.7158C104.899 92.649 105.502 92.7006 106.078 92.8679C106.654 93.0352 107.192 93.3147 107.66 93.6904C108.127 94.0662 108.516 94.5306 108.804 95.0571L116.164 108.484C119.076 113.821 119.772 120.088 118.101 125.934C116.431 131.779 112.528 136.732 107.236 139.724L56.947 167.75C56.0643 168.236 55.3674 169.001 54.9649 169.925C54.5624 170.849 54.477 171.88 54.722 172.857" fill="#43BB4E"/>
<path fill-rule="evenodd" clip-rule="evenodd" d="M56.014 301.817C73.277 289.337 81.069 269.897 74.981 256.364L74.701 255.551C64.8037 272.818 45.7037 291.302 17.401 311.004C28.542 314.15 43.237 311.07 56.017 301.817" fill="#32A940"/>
<path fill-rule="evenodd" clip-rule="evenodd" d="M366.64 462.285C386.34 454.245 398.459 437.205 395.707 422.605L395.627 421.752C381.967 436.179 359.08 449.601 326.967 462.018C337.058 467.725 352.059 468.231 366.64 462.285Z" fill="#DB8E19"/>
<path fill-rule="evenodd" clip-rule="evenodd" d="M421.392 433.685C431.477 439.165 446.261 439.565 460.639 433.712C475.424 427.672 485.939 416.566 489.102 405.232H489.511V404.045L489.6 403.152C490.25 399.994 490.253 396.738 489.609 393.579C476.013 407.952 453.274 421.321 421.392 433.686" fill="#DB8E19"/>
<path fill-rule="evenodd" clip-rule="evenodd" d="M395.626 337.51V421.75C395.625 422.037 395.652 422.322 395.706 422.603C398.458 437.203 386.338 454.243 366.639 462.283C345.076 471.07 322.595 465.75 316.428 450.39C310.261 435.03 322.743 415.443 344.304 406.644C351.361 403.711 358.951 402.276 366.592 402.431C367.204 402.458 367.815 402.357 368.386 402.135C368.957 401.912 369.475 401.573 369.907 401.138C370.352 400.711 370.705 400.198 370.943 399.629C371.181 399.06 371.3 398.448 371.291 397.831V299.711C371.28 298.703 371.604 297.72 372.213 296.916C372.822 296.112 373.68 295.534 374.654 295.271L465.176 270.418V270.311H465.568L483.697 265.338C484.373 265.141 485.087 265.11 485.778 265.247C486.468 265.384 487.116 265.685 487.666 266.125C488.232 266.549 488.69 267.101 489.001 267.736C489.312 268.372 489.468 269.072 489.455 269.779V270.312H489.508V392.632C489.506 392.951 489.54 393.268 489.608 393.579C490.252 396.738 490.249 399.995 489.599 403.152C489.539 403.446 489.509 403.745 489.51 404.045V405.232H489.104C485.945 416.565 475.427 427.672 460.641 433.712C439.076 442.499 416.597 437.179 410.429 421.819C404.261 406.459 416.744 386.872 438.306 378.072C445.331 375.151 452.884 373.717 460.491 373.859C461.103 373.884 461.713 373.78 462.282 373.555C462.852 373.33 463.368 372.988 463.798 372.552C464.244 372.129 464.596 371.618 464.834 371.051C465.072 370.484 465.189 369.874 465.179 369.259V320.899C465.192 320.192 465.036 319.492 464.725 318.856C464.413 318.221 463.954 317.669 463.387 317.246C462.837 316.806 462.19 316.505 461.499 316.368C460.808 316.231 460.095 316.263 459.419 316.459L398.987 333.085C398.015 333.346 397.157 333.922 396.549 334.723C395.941 335.525 395.616 336.506 395.627 337.512" fill="#F9B317"/>
<path fill-rule="evenodd" clip-rule="evenodd" d="M228.713 174.845L325.106 230.95C326.552 231.768 327.81 232.88 328.799 234.215C329.789 235.549 330.487 237.076 330.849 238.698C331.26 240.311 331.329 241.992 331.053 243.634C330.776 245.275 330.159 246.841 329.242 248.231L176.442 486.803C174.764 489.443 172.13 491.33 169.092 492.071C166.053 492.811 162.846 492.348 160.142 490.777L87.993 448.777C85.2818 447.191 83.28 444.628 82.3981 441.613C81.5162 438.598 81.821 435.361 83.25 432.564L211.804 179.87C212.534 178.383 213.568 177.065 214.84 176.004C216.113 174.943 217.595 174.161 219.189 173.71C220.766 173.216 222.431 173.061 224.072 173.257C225.713 173.452 227.295 173.993 228.712 174.845" fill="#5B7FC9"/>
<path fill-rule="evenodd" clip-rule="evenodd" d="M371.963 36.9373C426.519 68.6843 445.211 139.017 413.714 194.003C382.217 248.989 312.456 267.843 257.9 236.096C203.344 204.349 184.654 134.016 216.151 79.0161C247.648 24.0161 317.408 5.17628 371.964 36.9363" fill="#465DA9"/>
<path fill-rule="evenodd" clip-rule="evenodd" d="M226.731 63.9373L421.381 177.23C425.744 179.806 428.92 183.995 430.221 188.892C431.523 193.789 430.846 199.002 428.338 203.404V203.404C427.098 205.575 425.442 207.479 423.464 209.007C421.486 210.536 419.225 211.658 416.812 212.31C414.399 212.962 411.881 213.13 409.402 212.805C406.924 212.48 404.534 211.669 402.37 210.417L207.718 97.1372C203.354 94.5581 200.179 90.367 198.878 85.468C197.576 80.5691 198.253 75.355 200.761 70.9502V70.9502C202.002 68.7807 203.659 66.8776 205.637 65.3501C207.615 63.8227 209.876 62.7009 212.289 62.0493C214.702 61.3977 217.219 61.2293 219.698 61.5532C222.176 61.8772 224.566 62.6873 226.73 63.9373" fill="#5B7FC9"/>
<path fill-rule="evenodd" clip-rule="evenodd" d="M303.391 288.59C227.431 392.51 162.978 450.181 110.031 461.603L160.14 490.776C162.844 492.347 166.051 492.811 169.09 492.07C172.128 491.33 174.762 489.442 176.44 486.803L303.388 288.59" fill="#4267BA"/>
<path fill-rule="evenodd" clip-rule="evenodd" d="M397.826 163.511L421.379 177.231L421.579 177.351C429.721 155.764 431.215 132.234 425.868 109.791C419.783 129.22 410.287 147.411 397.825 163.511" fill="#2F4686"/>
<path fill-rule="evenodd" clip-rule="evenodd" d="M370.285 191.75C352.865 205.943 332.795 216.527 311.244 222.885C295.71 227.452 279.6 229.764 263.409 229.752C257.908 229.752 252.469 229.494 247.094 228.979C250.559 231.551 254.165 233.928 257.894 236.099C278.932 248.393 303.382 253.552 327.594 250.806C356.795 247.491 383.586 233.022 402.37 210.42L370.285 191.753" fill="#2F4686"/>
<path fill-rule="evenodd" clip-rule="evenodd" d="M199.404 325.977L209.943 332.11C211.341 332.932 212.358 334.272 212.775 335.84C213.191 337.407 212.973 339.075 212.168 340.483L197.72 365.71C197.323 366.405 196.793 367.014 196.16 367.503C195.527 367.991 194.804 368.35 194.031 368.558C193.259 368.767 192.453 368.82 191.66 368.716C190.867 368.611 190.103 368.351 189.411 367.95L178.874 361.817C177.476 360.995 176.459 359.655 176.042 358.088C175.626 356.521 175.843 354.852 176.647 353.444L191.096 328.217C191.493 327.523 192.023 326.913 192.655 326.425C193.288 325.936 194.012 325.577 194.784 325.369C195.556 325.16 196.362 325.107 197.155 325.212C197.948 325.316 198.712 325.576 199.404 325.977" fill="#F0393C"/>
<path fill-rule="evenodd" clip-rule="evenodd" d="M177.435 364.323L187.972 370.456C189.369 371.279 190.386 372.619 190.802 374.186C191.219 375.753 191.002 377.421 190.199 378.829L186.016 386.136C185.62 386.832 185.091 387.442 184.458 387.932C183.825 388.422 183.101 388.781 182.329 388.989C181.556 389.198 180.75 389.251 179.956 389.146C179.163 389.04 178.399 388.779 177.707 388.376L167.168 382.243C165.77 381.421 164.753 380.081 164.336 378.514C163.92 376.946 164.138 375.278 164.943 373.87L169.127 366.563C169.524 365.869 170.054 365.26 170.686 364.771C171.319 364.282 172.043 363.923 172.815 363.715C173.587 363.507 174.393 363.453 175.186 363.558C175.979 363.662 176.743 363.922 177.435 364.323" fill="#F9B317"/>
</g>
<defs>
<clipPath id="clip0_178_309">
<rect width="513.967" height="513.967" fill="white"/>
</clipPath>
</defs>
</svg>
