<svg width="217" height="217" viewBox="0 0 217 217" fill="none" xmlns="http://www.w3.org/2000/svg">
<path d="M63.0429 160.816C71.0844 160.816 77.6033 154.297 77.6033 146.256C77.6033 138.214 71.0844 131.695 63.0429 131.695C55.0014 131.695 48.4824 138.214 48.4824 146.256C48.4824 154.297 55.0014 160.816 63.0429 160.816Z" fill="#908DAF"/>
<path d="M63.0523 207.638C29.2045 207.638 1.66718 180.101 1.66718 146.256C1.66718 112.405 29.2045 84.8681 63.0523 84.8681C71.7202 84.8681 80.1008 86.6391 87.9639 90.1338C89.1605 90.6656 89.7018 92.0687 89.1676 93.2677C88.6358 94.4642 87.2351 95.0055 86.0338 94.4714C78.7832 91.2497 71.0507 89.6163 63.0523 89.6163C31.8232 89.6163 6.41541 115.026 6.41541 146.256C6.41541 177.485 31.8232 202.89 63.0523 202.89C94.2814 202.89 119.689 177.485 119.689 146.256C119.689 137.69 117.826 129.459 114.15 121.793C113.583 120.61 114.082 119.191 115.264 118.626C116.449 118.051 117.866 118.557 118.431 119.739C122.417 128.051 124.437 136.973 124.437 146.256C124.44 180.101 96.9025 207.638 63.0523 207.638Z" fill="white"/>
<path d="M63.0523 183.57C42.4758 183.57 25.7336 166.83 25.7336 146.253C25.7336 125.677 42.4735 108.934 63.0523 108.934C67.848 108.934 72.5132 109.829 76.9219 111.598C78.1398 112.085 78.731 113.467 78.2419 114.685C77.7528 115.9 76.3735 116.498 75.1556 116.005C71.3119 114.466 67.2402 113.683 63.0523 113.683C45.0945 113.683 30.4818 128.293 30.4818 146.253C30.4818 164.213 45.0945 178.821 63.0523 178.821C81.0101 178.821 95.6204 164.213 95.6204 146.253C95.6204 141.514 94.628 136.949 92.667 132.678C92.121 131.486 92.6433 130.076 93.8351 129.53C95.0293 128.986 96.4371 129.504 96.9832 130.698C99.2291 135.593 100.369 140.828 100.369 146.253C100.371 166.832 83.6288 183.57 63.0523 183.57Z" fill="white"/>
<path d="M163.162 58.202C162.915 57.3663 162.236 56.7348 161.386 56.552L154.287 55.0183L152.753 47.9197C152.571 47.0698 151.937 46.3884 151.103 46.1415C150.27 45.8946 149.37 46.1249 148.755 46.7398L137.854 57.6417C137.319 58.1735 137.072 58.9285 137.184 59.6716L138.369 67.5797L61.3738 144.577L64.7308 147.934L141.726 70.9367L149.632 72.119C149.75 72.138 149.869 72.1452 149.983 72.1452C150.61 72.1452 151.215 71.8983 151.661 71.4495L162.563 60.5476C163.178 59.9351 163.409 59.0353 163.162 58.202ZM149.152 67.2474L142.982 66.3238L142.056 60.1535L149.031 53.1784L149.969 57.5159C150.166 58.4275 150.878 59.1398 151.79 59.3368L156.125 60.2746L149.152 67.2474Z" fill="white"/>
<path d="M92.1281 79.9608C91.5204 79.9608 90.9126 79.7281 90.4496 79.2651C89.5213 78.3369 89.5213 76.8364 90.4496 75.9081L139.259 27.0987C140.187 26.1704 141.688 26.1704 142.616 27.0987C143.544 28.027 143.544 29.5274 142.616 30.4557L93.8066 79.2651C93.3437 79.7281 92.7359 79.9608 92.1281 79.9608Z" fill="#908DAF"/>
<path d="M130.373 121.843C129.765 121.843 129.157 121.61 128.694 121.147C127.766 120.219 127.766 118.718 128.694 117.79L193.747 52.7344C194.676 51.8061 196.176 51.8061 197.104 52.7344C198.033 53.6627 198.033 55.1631 197.104 56.0914L132.051 121.147C131.586 121.612 130.981 121.843 130.373 121.843Z" fill="#908DAF"/>
<path d="M67.3328 73.9376C66.7251 73.9376 66.1173 73.705 65.6543 73.242C64.7261 72.3137 64.7261 70.8133 65.6543 69.885L93.2416 42.2978C94.1698 41.3695 95.6703 41.3695 96.5986 42.2978C97.5268 43.2261 97.5268 44.7265 96.5986 45.6548L69.0113 73.242C68.546 73.705 67.9382 73.9376 67.3328 73.9376Z" fill="#908DAF"/>
<path d="M135.976 147.058C135.368 147.058 134.76 146.825 134.297 146.362C133.369 145.434 133.369 143.934 134.297 143.005L157.001 120.302C157.929 119.373 159.43 119.373 160.358 120.302C161.286 121.23 161.286 122.73 160.358 123.659L137.654 146.362C137.191 146.828 136.583 147.058 135.976 147.058Z" fill="#908DAF"/>
<path d="M157.979 14.6868H155.028V11.7358C155.028 10.4253 153.967 9.36168 152.654 9.36168C151.341 9.36168 150.28 10.4253 150.28 11.7358V14.6868H147.329C146.016 14.6868 144.955 15.7504 144.955 17.0609C144.955 18.3714 146.016 19.4351 147.329 19.4351H150.28V22.3885C150.28 23.699 151.341 24.7626 152.654 24.7626C153.967 24.7626 155.028 23.699 155.028 22.3885V19.4351H157.979C159.292 19.4351 160.353 18.3714 160.353 17.0609C160.353 15.7504 159.29 14.6868 157.979 14.6868Z" fill="#908DAF"/>
<path d="M177.361 106.249H174.41V103.296C174.41 101.985 173.349 100.922 172.036 100.922C170.723 100.922 169.662 101.985 169.662 103.296V106.249H166.711C165.398 106.249 164.337 107.313 164.337 108.623C164.337 109.934 165.398 110.998 166.711 110.998H169.662V113.946C169.662 115.259 170.723 116.32 172.036 116.32C173.349 116.32 174.41 115.259 174.41 113.946V110.998H177.361C178.674 110.998 179.735 109.934 179.735 108.623C179.735 107.313 178.672 106.249 177.361 106.249Z" fill="#908DAF"/>
<path d="M207.47 50.2321C205.457 50.2321 203.443 49.4652 201.91 47.9316C198.842 44.8642 198.842 39.8738 201.91 36.8088C204.977 33.7415 209.97 33.7438 213.032 36.8088C216.1 39.8762 216.1 44.8666 213.032 47.9316C211.501 49.4652 209.485 50.2321 207.47 50.2321ZM207.47 39.2542C206.639 39.2542 205.855 39.577 205.267 40.1658C204.051 41.3814 204.051 43.359 205.267 44.5746C206.48 45.7877 208.457 45.7925 209.673 44.5746C210.262 43.9858 210.587 43.2023 210.587 42.3714C210.587 41.5381 210.262 40.7546 209.673 40.1658C209.084 39.577 208.303 39.2542 207.47 39.2542Z" fill="#908DAF"/>
<path d="M107.427 39.3301C105.411 39.3301 103.398 38.5633 101.864 37.0296C100.378 35.5458 99.5615 33.5682 99.5615 31.4671C99.5615 29.366 100.378 27.3907 101.864 25.9069C104.932 22.8419 109.922 22.8395 112.987 25.9069C114.473 27.3907 115.292 29.366 115.292 31.4671C115.292 33.5682 114.473 35.5434 112.987 37.0296C111.456 38.5657 109.44 39.3301 107.427 39.3301ZM107.427 28.3546C106.629 28.3546 105.832 28.6585 105.224 29.2663C104.635 29.855 104.312 30.6361 104.312 31.4694C104.312 32.3027 104.635 33.0862 105.224 33.675C106.439 34.8905 108.415 34.8905 109.633 33.675C110.221 33.0862 110.544 32.3027 110.544 31.4694C110.544 30.6361 110.221 29.855 109.633 29.2663C109.025 28.6585 108.225 28.3546 107.427 28.3546ZM103.543 27.5878H103.567H103.543Z" fill="#908DAF"/>
</svg>
