<svg width="48" height="58" viewBox="0 0 48 58" fill="none" xmlns="http://www.w3.org/2000/svg">
<path d="M0 0L17.68 30.62L29.8 23.62L16.16 0H0Z" fill="#212529"/>
<path d="M29.8 23.6201L22.59 11.1201L18.87 17.5601C16.3769 18.1362 14.0065 19.1521 11.87 20.5601L17.67 30.5601L29.8 23.6201Z" fill="#111315"/>
<path d="M26.34 25.62L21.14 28.62L4.60999 0H11.54L26.34 25.62Z" fill="#DD051D"/>
<path d="M31.3201 0L17.6801 23.62L29.8001 30.62L47.4801 0H31.3201Z" fill="#212529"/>
<path d="M26.34 25.6201L20.28 15.1201L18.86 17.5801C17.6777 17.8483 16.5202 18.2163 15.4 18.6801L21.14 28.6201L26.34 25.6201Z" fill="#A60416"/>
<path d="M35.6001 20.5799C31.4243 17.811 26.4113 16.5905 21.4301 17.1299L17.6801 23.6199L29.8001 30.6199L35.6001 20.5799Z" fill="#111315"/>
<path d="M42.87 0L26.34 28.62L21.14 25.62L35.94 0H42.87Z" fill="#DD051D"/>
<path d="M26.34 28.6199L32.08 18.6799C30.1658 17.875 28.1446 17.3528 26.08 17.1299L21.14 25.6199L26.34 28.6199Z" fill="#A60416"/>
<path d="M23.74 58C34.5095 58 43.24 49.2696 43.24 38.5C43.24 27.7304 34.5095 19 23.74 19C12.9704 19 4.23999 27.7304 4.23999 38.5C4.23999 49.2696 12.9704 58 23.74 58Z" fill="#E9E5D7"/>
<path d="M23.74 53C31.7481 53 38.24 46.5081 38.24 38.5C38.24 30.4919 31.7481 24 23.74 24C15.7319 24 9.23999 30.4919 9.23999 38.5C9.23999 46.5081 15.7319 53 23.74 53Z" fill="#F5F5F4"/>
<path d="M25.62 30.5701C24.6236 30.298 23.5766 30.2676 22.5661 30.4815C21.5556 30.6955 20.6107 31.1475 19.81 31.8001C19.1102 32.4071 18.5502 33.1585 18.1687 34.0027C17.7872 34.8469 17.5932 35.7637 17.6 36.6901H21.74C21.74 34.4501 25.11 34.3101 25.74 35.6901C26.74 37.7901 17.74 42.6901 17.74 42.6901V46.6901H29.74V42.6901H25.74C27.1373 42.0408 28.2842 40.9529 29.0062 39.5918C29.7283 38.2307 29.9859 36.6711 29.74 35.1501C29.5157 34.0922 29.0169 33.112 28.2937 32.3081C27.5705 31.5041 26.6483 30.9047 25.62 30.5701V30.5701Z" fill="#C0C0C0"/>
</svg>
