<svg width="256" height="256" viewBox="0 0 256 256" fill="none" xmlns="http://www.w3.org/2000/svg">
<path d="M15.7815 136.878H12.1397C10.5933 136.878 9.33826 135.625 9.33826 134.076C9.33826 132.527 10.5933 131.275 12.1397 131.275H15.7815C17.3278 131.275 18.5829 132.527 18.5829 134.076C18.5829 135.625 17.3278 136.878 15.7815 136.878Z" fill="white"/>
<path d="M34.041 136.878H30.3992C28.8528 136.878 27.5978 135.625 27.5978 134.076C27.5978 132.527 28.8528 131.275 30.3992 131.275H34.0438C35.5902 131.275 36.8452 132.527 36.8452 134.076C36.8452 135.625 35.5902 136.878 34.041 136.878Z" fill="white"/>
<path d="M23.0903 129.569C21.544 129.569 20.2889 128.314 20.2889 126.767V123.123C20.2889 121.576 21.544 120.321 23.0903 120.321C24.6367 120.321 25.8917 121.576 25.8917 123.123V126.767C25.8917 128.314 24.6367 129.569 23.0903 129.569Z" fill="white"/>
<path d="M23.0903 147.828C21.544 147.828 20.2889 146.576 20.2889 145.027V141.382C20.2889 139.833 21.544 138.581 23.0903 138.581C24.6367 138.581 25.8917 139.833 25.8917 141.382V145.027C25.8917 146.576 24.6367 147.828 23.0903 147.828Z" fill="white"/>
<path d="M236.834 57.3207C236.47 57.3207 236.106 57.2366 235.742 57.0966C235.406 56.9565 235.097 56.7604 234.845 56.4803C234.593 56.2281 234.369 55.92 234.229 55.5838C234.089 55.2476 234.033 54.8835 234.033 54.5193C234.033 53.7629 234.316 53.0345 234.845 52.5303C235.097 52.2782 235.406 52.054 235.742 51.914C236.271 51.7179 236.834 51.6619 237.367 51.7739C237.56 51.8019 237.731 51.8579 237.896 51.914C238.067 51.998 238.232 52.0821 238.372 52.1941C238.543 52.2782 238.68 52.3902 238.793 52.5303C239.325 53.0625 239.633 53.7629 239.633 54.5193C239.633 55.2476 239.328 55.976 238.793 56.4803C238.291 57.0125 237.56 57.3207 236.834 57.3207Z" fill="white"/>
<path d="M151.417 25.3538H147.772C146.223 25.3538 144.971 24.0987 144.971 22.5524C144.971 21.006 146.223 19.751 147.772 19.751H151.417C152.966 19.751 154.218 21.006 154.218 22.5524C154.218 24.0987 152.966 25.3538 151.417 25.3538Z" fill="white"/>
<path d="M169.676 25.3538H166.035C164.485 25.3538 163.233 24.0987 163.233 22.5524C163.233 21.006 164.485 19.751 166.035 19.751H169.676C171.226 19.751 172.478 21.006 172.478 22.5524C172.478 24.0987 171.226 25.3538 169.676 25.3538Z" fill="white"/>
<path d="M158.726 18.0449C157.177 18.0449 155.924 16.7899 155.924 15.2435V11.6017C155.924 10.0553 157.177 8.80029 158.726 8.80029C160.275 8.80029 161.527 10.0553 161.527 11.6017V15.2435C161.527 16.7927 160.275 18.0449 158.726 18.0449Z" fill="white"/>
<path d="M158.726 36.3075C157.177 36.3075 155.924 35.0525 155.924 33.5061V29.8615C155.924 28.3151 157.177 27.0601 158.726 27.0601C160.275 27.0601 161.527 28.3151 161.527 29.8615V33.5061C161.527 35.0525 160.275 36.3075 158.726 36.3075Z" fill="white"/>
<path d="M236.834 202.543C236.442 202.543 236.078 202.461 235.742 202.321C235.406 202.178 235.097 201.985 234.845 201.702C234.593 201.45 234.369 201.142 234.229 200.808C234.089 200.472 234.033 200.108 234.033 199.741C234.033 198.985 234.316 198.284 234.845 197.752C235.49 197.111 236.442 196.8 237.367 196.996C237.56 197.024 237.731 197.08 237.896 197.136C238.067 197.22 238.232 197.307 238.372 197.419C238.543 197.5 238.68 197.612 238.793 197.752C239.325 198.284 239.633 199.013 239.633 199.741C239.633 200.108 239.549 200.472 239.409 200.808C239.269 201.142 239.073 201.45 238.793 201.702C238.291 202.237 237.56 202.543 236.834 202.543Z" fill="white"/>
<path d="M4.73841 78.4149C4.01005 78.4149 3.28168 78.1068 2.74942 77.6025C2.49729 77.3224 2.30119 77.0143 2.16112 76.6781C2.02105 76.3419 1.93701 75.9777 1.93701 75.6135C1.93701 75.4174 1.96503 75.2494 1.99304 75.0533C2.02105 74.8852 2.07708 74.7171 2.16112 74.549C2.21715 74.3809 2.30119 74.2128 2.41325 74.0448C2.49729 73.9047 2.63736 73.7646 2.74942 73.6246C3.78594 72.588 5.69089 72.588 6.72741 73.6246C6.83946 73.7646 6.95152 73.9047 7.06357 74.0448C7.17563 74.2128 7.25967 74.3809 7.3157 74.549C7.39974 74.7171 7.45577 74.8852 7.48378 75.0533C7.5118 75.2494 7.53981 75.4174 7.53981 75.6135C7.53981 75.9777 7.45577 76.3419 7.3157 76.6781C7.17563 77.0143 6.97953 77.3224 6.72741 77.6025C6.58734 77.7146 6.44727 77.8267 6.3072 77.9387C6.13911 78.0508 5.97103 78.1348 5.80294 78.1908C5.63486 78.2749 5.46678 78.3309 5.27068 78.3589C5.10259 78.3869 4.9065 78.4149 4.73841 78.4149Z" fill="white"/>
<path d="M94.4533 101.871C86.5982 101.871 80.4463 97.4339 80.4463 91.7666C80.4463 86.0994 86.5982 81.6592 94.4533 81.6592C102.308 81.6592 108.46 86.0994 108.46 91.7666C108.46 97.4339 102.308 101.871 94.4533 101.871ZM94.4533 87.262C89.6433 87.262 86.0491 89.6404 86.0491 91.7666C86.0491 93.8929 89.6433 96.2685 94.4533 96.2685C99.2633 96.2685 102.857 93.8901 102.857 91.7666C102.857 89.6432 99.2633 87.262 94.4533 87.262Z" fill="white"/>
<path d="M218.558 168.94C209.529 168.94 202.187 161.597 202.187 152.568C202.187 143.539 209.529 136.197 218.558 136.197C227.587 136.197 234.929 143.539 234.929 152.568C234.929 161.597 227.587 168.94 218.558 168.94ZM218.558 141.802C212.622 141.802 207.789 146.635 207.789 152.571C207.789 158.507 212.622 163.34 218.558 163.34C224.494 163.34 229.327 158.507 229.327 152.571C229.327 146.635 224.494 141.802 218.558 141.802Z" fill="#908DAF"/>
<path d="M58.8111 48.3757C49.785 48.3757 42.4397 41.0304 42.4397 32.0043C42.4397 22.9782 49.785 15.6357 58.8111 15.6357C67.8372 15.6357 75.1825 22.981 75.1825 32.0071C75.1825 41.0332 67.8372 48.3757 58.8111 48.3757ZM58.8111 21.2385C52.8721 21.2385 48.0425 26.0682 48.0425 32.0071C48.0425 37.9461 52.8721 42.7757 58.8111 42.7757C64.75 42.7757 69.5797 37.9461 69.5797 32.0071C69.5797 26.0682 64.7472 21.2385 58.8111 21.2385Z" fill="#908DAF"/>
<path d="M22.8355 192.936C22.0791 192.936 21.3787 192.656 20.8465 192.124C20.5943 191.872 20.3702 191.564 20.2302 191.227C20.0901 190.863 20.0341 190.527 20.0341 190.135C20.0341 189.406 20.3142 188.678 20.8465 188.174C21.883 187.109 23.7599 187.109 24.7964 188.174C25.3287 188.681 25.6369 189.406 25.6369 190.135C25.6369 190.527 25.5528 190.863 25.4127 191.227C25.2727 191.564 25.0766 191.872 24.7964 192.124C24.2922 192.656 23.5918 192.936 22.8355 192.936Z" fill="#908DAF"/>
<path d="M82.5249 229.705C74.1907 229.705 67.4085 222.922 67.4085 214.588V175.94C65.4727 177.204 63.1616 177.94 60.6824 177.94C53.8834 177.94 48.3534 172.408 48.3534 165.611V136.827C48.3534 124.834 55.878 113.9 67.0752 109.623C68.5207 109.074 70.1399 109.793 70.6918 111.239C71.2436 112.685 70.5209 114.304 69.0753 114.856C60.0324 118.313 53.9562 127.143 53.9562 136.827V165.609C53.9562 169.318 56.9733 172.335 60.6824 172.335C64.3914 172.335 67.4085 169.318 67.4085 165.609V136.379C67.4085 134.83 68.6635 133.577 70.2099 133.577C71.7563 133.577 73.0113 134.83 73.0113 136.379V214.588C73.0113 219.832 77.2778 224.102 82.5249 224.102C87.7719 224.102 92.0356 219.835 92.0356 214.588V176.195C92.0356 174.646 93.2906 173.394 94.837 173.394C96.3834 173.394 97.6384 174.646 97.6384 176.195V214.588C97.6384 222.922 90.8562 229.705 82.5249 229.705Z" fill="#908DAF"/>
<path d="M94.4533 117.604C80.2054 117.604 68.6132 106.012 68.6132 91.7664C68.6132 77.5185 80.2054 65.9263 94.4533 65.9263C108.701 65.9263 120.293 77.5185 120.293 91.7664C120.293 106.012 108.701 117.604 94.4533 117.604ZM94.4533 71.5291C83.2953 71.5291 74.216 80.6084 74.216 91.7664C74.216 102.924 83.2953 112.001 94.4533 112.001C105.611 112.001 114.691 102.924 114.691 91.7664C114.691 80.6084 105.611 71.5291 94.4533 71.5291Z" fill="#908DAF"/>
<path d="M104.748 151.24H84.1637C82.6173 151.24 81.3623 149.988 81.3623 148.439V130.473C81.3623 128.927 82.6173 127.672 84.1637 127.672H104.748C106.295 127.672 107.55 128.927 107.55 130.473V148.439C107.55 149.988 106.295 151.24 104.748 151.24ZM86.9651 145.637H101.947V133.277H86.9651V145.637V145.637Z" fill="#908DAF"/>
<path d="M145.052 116.097H124.68C123.134 116.097 121.879 114.842 121.879 113.296C121.879 111.749 123.134 110.494 124.68 110.494H145.052C146.601 110.494 147.853 111.749 147.853 113.296C147.853 114.842 146.601 116.097 145.052 116.097Z" fill="#908DAF"/>
<path d="M106.768 229.705C98.434 229.705 91.6519 222.925 91.6519 214.588V176.195C91.6519 174.646 92.9069 173.394 94.4533 173.394C95.9996 173.394 97.2547 174.646 97.2547 176.195V214.588C97.2547 219.833 101.521 224.102 106.768 224.102C112.015 224.102 116.279 219.835 116.279 214.588V132.356C116.279 130.807 117.534 129.555 119.08 129.555H145.052C146.601 129.555 147.854 130.807 147.854 132.356C147.854 133.905 146.601 135.157 145.052 135.157H121.882V214.588C121.882 222.925 115.102 229.705 106.768 229.705Z" fill="#908DAF"/>
<path d="M162.62 134.466C161.51 134.466 160.457 133.802 160.017 132.704C159.443 131.266 160.143 129.636 161.58 129.062C164.158 128.031 165.825 125.585 165.825 122.826C165.825 120.066 164.158 117.621 161.58 116.59C160.143 116.016 159.443 114.385 160.017 112.948C160.592 111.511 162.222 110.816 163.659 111.385C168.379 113.27 171.425 117.761 171.425 122.823C171.425 127.885 168.377 132.379 163.659 134.261C163.317 134.401 162.967 134.466 162.62 134.466Z" fill="#908DAF"/>
<path d="M154.568 229.705C153.019 229.705 151.767 228.452 151.767 226.903V144.562C151.767 143.012 153.019 141.76 154.568 141.76C156.118 141.76 157.37 143.012 157.37 144.562V226.903C157.37 228.45 156.118 229.705 154.568 229.705Z" fill="white"/>
<path d="M154.568 147.363C153.019 147.363 151.767 146.111 151.767 144.562V55.651C151.767 54.1046 153.019 52.8496 154.568 52.8496C156.118 52.8496 157.37 54.1046 157.37 55.651V144.562C157.37 146.111 156.118 147.363 154.568 147.363Z" fill="white"/>
<path d="M210.344 91.5902H168.491C166.942 91.5902 165.69 90.3351 165.69 88.7888C165.69 87.2424 166.942 85.9874 168.491 85.9874H207.543V58.4524H154.568C153.019 58.4524 151.767 57.1974 151.767 55.651C151.767 54.1046 153.019 52.8496 154.568 52.8496H210.342C211.891 52.8496 213.143 54.1046 213.143 55.651V88.7888C213.146 90.3351 211.891 91.5902 210.344 91.5902Z" fill="white"/>
<path d="M10.2348 247.2C9.47563 247.2 8.71925 246.894 8.16737 246.289C7.12245 245.149 7.20089 243.379 8.34386 242.334C18.2552 233.26 33.5873 225.41 52.6872 219.631C54.158 219.183 55.7323 220.02 56.1806 221.5C56.6288 222.982 55.7912 224.545 54.312 224.993C36.0049 230.531 21.4208 237.955 12.1258 246.463C11.5879 246.956 10.9099 247.2 10.2348 247.2Z" fill="#908DAF"/>
<path d="M142.167 214.852C142.13 214.852 142.099 214.852 142.066 214.849C138.329 214.717 134.522 214.65 130.748 214.65C129.202 214.65 127.947 213.398 127.947 211.849C127.947 210.3 129.202 209.047 130.748 209.047C134.586 209.047 138.458 209.115 142.262 209.252C143.811 209.308 145.016 210.602 144.962 212.149C144.909 213.661 143.665 214.852 142.167 214.852Z" fill="#908DAF"/>
<path d="M251.262 247.2C250.587 247.2 249.909 246.956 249.368 246.463C233.803 232.212 204.249 221.449 168.279 216.939C166.741 216.748 165.654 215.348 165.847 213.813C166.04 212.277 167.427 211.196 168.973 211.381C206.069 216.034 236.75 227.315 253.153 242.334C254.296 243.379 254.374 245.149 253.329 246.289C252.774 246.891 252.021 247.2 251.262 247.2Z" fill="#908DAF"/>
</svg>
