<svg width="39" height="58" viewBox="0 0 39 58" fill="none" xmlns="http://www.w3.org/2000/svg">
<path d="M32.5 14L19.5 22L6.5 14V0H32.5V14Z" fill="#212529"/>
<path d="M27.5 0V17.08L19.5 22L11.5 17.08V0H27.5Z" fill="#DD051D"/>
<path d="M19.5 22.0001L25.99 18.0001C21.7619 16.6494 17.2181 16.6494 12.99 18.0001L19.5 22.0001Z" fill="#A60416"/>
<path d="M19.5 58C30.2696 58 39 49.2696 39 38.5C39 27.7304 30.2696 19 19.5 19C8.73045 19 0 27.7304 0 38.5C0 49.2696 8.73045 58 19.5 58Z" fill="#A06915"/>
<path d="M19.5 53C27.5081 53 34 46.5081 34 38.5C34 30.4919 27.5081 24 19.5 24C11.4919 24 5 30.4919 5 38.5C5 46.5081 11.4919 53 19.5 53Z" fill="#B4A287"/>
<path d="M24.04 38.5C24.5919 38.0942 25.0443 37.5682 25.363 36.9619C25.6818 36.3555 25.8586 35.6847 25.88 35C25.88 32.24 23.02 30 19.5 30C15.98 30 13.13 32.24 13.13 35H17.05C17.1127 34.5468 17.3288 34.1289 17.6623 33.8158C17.9958 33.5027 18.4266 33.3134 18.8828 33.2794C19.3391 33.2455 19.7931 33.369 20.1693 33.6293C20.5455 33.8897 20.821 34.2711 20.95 34.71C21.12 35.94 20.18 37.44 18.95 37.44V39.56C21.17 39.56 21.79 43.06 19.67 43.88C19.3715 43.9774 19.0542 44.0031 18.7439 43.955C18.4336 43.907 18.139 43.7866 17.8839 43.6035C17.6288 43.4205 17.4204 43.1799 17.2755 42.9013C17.1306 42.6227 17.0534 42.314 17.05 42H13.13C13.13 44.76 15.98 47 19.5 47C23.02 47 25.88 44.76 25.88 42C25.8586 41.3153 25.6818 40.6445 25.363 40.0381C25.0443 39.4318 24.5919 38.9058 24.04 38.5V38.5Z" fill="#B08D57"/>
</svg>
