<svg width="256" height="256" viewBox="0 0 256 256" fill="none" xmlns="http://www.w3.org/2000/svg">
<path d="M8.61102 252.54C7.88928 252.54 7.16754 252.263 6.61778 251.714C5.51543 250.611 5.51543 248.83 6.61778 247.727L120.075 134.27C121.177 133.168 122.959 133.168 124.061 134.27C125.164 135.372 125.164 137.154 124.061 138.257L10.6043 251.714C10.0517 252.263 9.32994 252.54 8.61102 252.54Z" fill="white"/>
<path d="M225.043 122.04C223.859 122.04 222.703 122.153 221.564 122.317C220.236 115.232 215.847 109.232 209.822 105.739C203.963 113.571 197.53 121.595 190.498 129.813L191.192 157.186H221.136H246.848C248.463 153.929 249.393 150.273 249.393 146.393C249.393 132.942 238.491 122.04 225.043 122.04Z" fill="#908DAF"/>
<path d="M68.2336 74.0923C73.0997 69.2262 79.8547 66.5112 86.7197 66.7085L131.166 67.8363C138.984 61.1461 146.619 55.0197 154.09 49.3896C148.217 40.7935 138.344 35.1465 127.146 35.1465C125.558 35.1465 124.013 35.2987 122.485 35.5186C119.658 20.3874 106.404 8.93262 90.4553 8.93262C74.5065 8.93262 61.253 20.3874 58.4224 35.513C56.8972 35.2931 55.3494 35.1408 53.7621 35.1408C35.7496 35.1408 21.1484 49.742 21.1484 67.7545C21.1484 72.9533 22.3974 77.8504 24.5598 82.2119H60.114L68.2336 74.0923Z" fill="#908DAF"/>
<path d="M188.618 87.1147C183.644 87.1147 178.967 85.1778 175.452 81.6593C171.933 78.1408 169.993 73.4664 169.993 68.4932C169.993 63.5171 171.933 58.8427 175.452 55.3242C178.967 51.8058 183.644 49.8689 188.618 49.8689C193.594 49.8689 198.271 51.8058 201.787 55.3242C205.305 58.8427 207.242 63.5171 207.242 68.4932C207.242 73.4664 205.305 78.1437 201.787 81.6593C198.271 85.1778 193.591 87.1147 188.618 87.1147ZM188.618 55.5075C185.153 55.5075 181.891 56.8579 179.438 59.3107C176.985 61.7635 175.632 65.0226 175.632 68.4932C175.632 71.9609 176.982 75.22 179.438 77.6728C181.891 80.1256 185.15 81.4761 188.618 81.4761C192.085 81.4761 195.347 80.1256 197.8 77.6728C200.253 75.22 201.603 71.9609 201.603 68.4932C201.603 65.0254 200.253 61.7635 197.8 59.3107C195.345 56.8579 192.085 55.5075 188.618 55.5075Z" fill="#908DAF"/>
<path d="M254.832 12.8232C255.069 10.2774 254.169 7.77951 252.359 5.96952C250.549 4.15953 248.034 3.26018 245.506 3.497C212.72 6.56722 173.591 27.5259 128.764 65.936L84.047 64.8027C77.3456 64.6025 70.8302 67.247 66.1107 71.9665L45.682 92.3952C43.4153 94.6619 42.5526 97.8674 43.3786 100.966C44.2047 104.064 46.5447 106.416 49.6403 107.256L81.4138 115.871L101.307 135.762C102.409 136.864 104.191 136.864 105.293 135.762C106.396 134.659 106.396 132.878 105.293 131.775L86.8353 113.317C150.301 48.1152 203.85 13.0629 246.033 9.11304C246.904 9.04538 247.755 9.34141 248.373 9.95883C248.99 10.5763 249.297 11.4305 249.216 12.2989C245.269 54.4784 210.211 108.031 145.012 171.496L126.551 153.036C125.448 151.933 123.667 151.933 122.564 153.036C121.462 154.138 121.462 155.92 122.564 157.022L142.46 176.915L151.076 208.686C151.913 211.784 154.267 214.124 157.366 214.95C158.138 215.156 158.919 215.257 159.692 215.257C162.004 215.255 164.234 214.347 165.934 212.644L186.359 192.218C191.085 187.493 193.698 180.958 193.526 174.282L192.393 129.565C230.8 84.738 251.759 45.6089 254.832 12.8232ZM82.0171 110.193L51.1176 101.814C49.4852 101.372 48.9749 100.058 48.8283 99.5167C48.6846 98.9726 48.4759 97.577 49.6713 96.3845L70.1 75.9558C73.7369 72.3218 78.7834 70.3172 83.9061 70.4413L122.457 71.4168C109.44 82.9054 95.9529 95.8404 82.0171 110.193ZM187.887 174.426C188.02 179.562 186.01 184.595 182.373 188.232L161.947 208.657C160.752 209.853 159.362 209.644 158.818 209.5C158.274 209.354 156.96 208.844 156.517 207.208L148.138 176.312C162.488 162.376 175.426 148.891 186.915 135.874L187.887 174.426Z" fill="white"/>
<path d="M71.7014 222.052C70.9796 222.052 70.2579 221.776 69.7081 221.226C68.6058 220.123 68.6058 218.342 69.7081 217.239L115.792 171.152C116.895 170.05 118.677 170.05 119.779 171.152C120.881 172.255 120.881 174.036 119.779 175.139L73.6946 221.226C73.142 221.776 72.4203 222.052 71.7014 222.052Z" fill="#908DAF"/>
<path d="M26.2796 199.486C25.5579 199.486 24.8361 199.21 24.2864 198.66C23.184 197.558 23.184 195.776 24.2864 194.674L80.1395 138.821C81.2419 137.718 83.0237 137.718 84.126 138.821C85.2283 139.923 85.2283 141.705 84.126 142.807L28.2728 198.66C27.7203 199.213 27.0013 199.486 26.2796 199.486Z" fill="#908DAF"/>
<path d="M102.254 226.21C101.532 226.21 100.811 225.934 100.261 225.384C99.1585 224.282 99.1585 222.5 100.261 221.398L125.167 196.489C126.269 195.387 128.051 195.387 129.153 196.489C130.255 197.592 130.255 199.374 129.153 200.476L104.247 225.384C103.698 225.934 102.976 226.21 102.254 226.21Z" fill="#908DAF"/>
<path d="M38.7579 152.297C38.0361 152.297 37.3144 152.021 36.7646 151.471C35.6623 150.368 35.6623 148.587 36.7646 147.484L57.1313 127.12C58.2336 126.018 60.0154 126.018 61.1177 127.12C62.2201 128.223 62.2201 130.005 61.1177 131.11L40.7511 151.474C40.2014 152.021 39.4796 152.297 38.7579 152.297Z" fill="#908DAF"/>
<path d="M57.0354 242.715C55.4791 242.715 54.2161 241.454 54.2161 239.895V227.896C54.2161 226.337 55.4791 225.077 57.0354 225.077C58.5916 225.077 59.8547 226.337 59.8547 227.896V239.895C59.8547 241.454 58.5944 242.715 57.0354 242.715Z" fill="#908DAF"/>
<path d="M63.0348 236.715H51.0387C49.4824 236.715 48.2194 235.455 48.2194 233.896C48.2194 232.337 49.4824 231.076 51.0387 231.076H63.0348C64.591 231.076 65.8541 232.337 65.8541 233.896C65.8541 235.455 64.591 236.715 63.0348 236.715Z" fill="#908DAF"/>
<path d="M24.0721 172.982C22.5159 172.982 21.2528 171.722 21.2528 170.163V158.164C21.2528 156.605 22.5159 155.344 24.0721 155.344C25.6284 155.344 26.8914 156.605 26.8914 158.164V170.163C26.8914 171.722 25.6312 172.982 24.0721 172.982Z" fill="#908DAF"/>
<path d="M30.0715 166.983H18.0754C16.5191 166.983 15.2561 165.722 15.2561 164.163C15.2561 162.604 16.5191 161.344 18.0754 161.344H30.0715C31.6278 161.344 32.8908 162.604 32.8908 164.163C32.8908 165.722 31.6278 166.983 30.0715 166.983Z" fill="#908DAF"/>
<path d="M10.1363 221.818C7.73145 221.818 5.47037 220.879 3.76752 219.176C2.06748 217.479 1.13147 215.215 1.13147 212.813C1.13147 210.411 2.06748 208.147 3.76752 206.444C7.28036 202.937 12.9923 202.937 16.5023 206.444C18.2052 208.147 19.1412 210.408 19.1412 212.813C19.1412 215.218 18.2052 217.476 16.5051 219.179C14.8023 220.879 12.5412 221.818 10.1363 221.818ZM10.1363 209.447C9.27361 209.447 8.41372 209.774 7.75682 210.431C7.11966 211.068 6.77007 211.911 6.77007 212.813C6.77007 213.71 7.11966 214.556 7.75682 215.193C9.02833 216.464 11.2471 216.464 12.5158 215.193C13.153 214.556 13.5026 213.713 13.5026 212.813C13.5026 211.914 13.153 211.068 12.5158 210.431C11.8589 209.777 10.9962 209.447 10.1363 209.447Z" fill="#908DAF"/>
<path d="M87.5655 247.076C85.2593 247.076 82.9531 246.196 81.1995 244.443C79.4967 242.743 78.5607 240.482 78.5607 238.074C78.5607 235.669 79.4967 233.408 81.1995 231.708C84.7096 228.201 90.4215 228.201 93.9343 231.708C95.6372 233.408 96.5732 235.669 96.5732 238.074C96.5732 240.482 95.6372 242.743 93.9343 244.443C92.1779 246.199 89.8717 247.076 87.5655 247.076ZM87.5655 234.713C86.7028 234.713 85.8429 235.04 85.186 235.697C84.5489 236.334 84.1993 237.177 84.1993 238.077C84.1993 238.976 84.5489 239.822 85.186 240.459C86.4998 241.77 88.634 241.77 89.945 240.459C90.5822 239.822 90.9318 238.979 90.9318 238.077C90.9318 237.18 90.5822 236.334 89.945 235.697C89.2909 235.043 88.4282 234.713 87.5655 234.713Z" fill="#908DAF"/>
<circle cx="189" cy="68" r="10" fill="white"/>
</svg>
